<?xml version="1.0" encoding="utf-8"?>
<!-- Generator: Adobe Illustrator 23.0.0, SVG Export Plug-In . SVG Version: 6.00 Build 0)  -->
<svg version="1.1" id="Capa_1" xmlns="http://www.w3.org/2000/svg" xmlns:xlink="http://www.w3.org/1999/xlink" x="0px" y="0px"
	 viewBox="94 70 206 216" fill="#3c4c54">
<path d="M239.5,168.2c8.4-10,13.5-22.8,13.5-36.9c0-31.6-25.7-57.3-57.3-57.3c-31.6,0-57.3,25.7-57.3,57.3c0,14,5.1,26.9,13.5,36.9
	c-33.3,15.3-56.5,49-56.5,88v0.6c0,14.9,12.1,27,27,27H269c14.9,0,27-12.1,27-27v-0.6C296,217.1,272.8,183.5,239.5,168.2
	L239.5,168.2z M195.6,104c15.1,0,27.3,12.3,27.3,27.3s-12.3,27.3-27.3,27.3c-15.1,0-27.3-12.3-27.3-27.3S180.5,104,195.6,104z
	 M125.3,253.7c1.3-35.7,30.7-64.3,66.7-64.3h7.2c36,0,65.4,28.6,66.7,64.3H125.3z"/>
</svg>
