<?xml version="1.0" encoding="iso-8859-1"?>
<!-- Generator: Adobe Illustrator 19.0.0, SVG Export Plug-In . SVG Version: 6.00 Build 0)  -->
<svg version="1.1" id="Capa_1" xmlns="http://www.w3.org/2000/svg" xmlns:xlink="http://www.w3.org/1999/xlink" x="0px" y="0px"
	 viewBox="0 0 512.085 512.085" style="enable-background:new 0 0 512.085 512.085;" xml:space="preserve">
<g>
	<g>
		<g>
			<path d="M482.071,228.334h-18.735v-94.645c0-68.394-55.644-124.038-124.048-124.038H228.491c-4.143,0-7.506,3.363-7.506,7.506
				c0,4.143,3.363,7.506,7.506,7.506h110.798c60.118,0,109.036,48.909,109.036,109.026v94.645h-21.947V134.65
				c0-34.157-20.186-65.422-51.421-79.663c-3.773-1.721-8.227-0.05-9.938,3.713c-1.721,3.773-0.06,8.227,3.713,9.948
				c25.901,11.809,42.634,37.71,42.634,66.002v93.684H315.93c-4.143,0-7.506,3.363-7.506,7.506c0,4.153,3.363,7.506,7.506,7.506
				h166.141c2.962,0,5.735,0.861,8.066,2.362c4.173,2.662,6.935,7.346,6.935,12.65v3.042v12.93c0,8.277-6.725,15.012-15.002,15.012
				c-12.922,0-111.13,0-144.144,0c-0.03,0-0.04,0-0.04,0H30.014c-8.277,0-15.002-6.735-15.002-15.012v-15.973
				c0-8.277,6.725-15.012,15.002-15.012h255.892c4.153,0,7.506-3.353,7.506-7.506c0-4.143-3.353-7.506-7.506-7.506H100.72V134.65
				c0-39.962,32.506-72.467,72.457-72.467c175.949,0.03,166.071-0.08,169.304,0.09c4.143,0.19,7.666-2.992,7.866-7.126
				c0.21-4.143-2.982-7.666-7.126-7.866c-1.411-0.07-2.862-0.11-4.313-0.11H173.177c-48.228,0-87.469,39.241-87.469,87.479v93.684
				H63.76v-94.645c0-60.118,48.919-109.026,109.036-109.026h25.67c4.143,0,7.506-3.363,7.506-7.506c0-4.143-3.363-7.506-7.506-7.506
				h-25.67c-68.404,0-124.048,55.644-124.048,124.038v94.645H30.014C13.461,228.334,0,241.805,0,258.358v15.973
				c0,16.553,13.461,30.024,30.014,30.024h8.917c0.5,3.913-4.464,53.602,28.252,106.574c9.057,14.652,20.907,28.623,28.453,35.748
				c66.012,65.562,143.303,54.403,150.269,55.614c39.892,0,75.543,3.188,122.117-20.556
				c59.865-30.362,102.273-91.674,104.994-163.327c0.028-0.737,0.08-9.438,0.114-14.053h8.942c16.553,0,30.014-13.471,30.014-30.024
				v-15.973C512.085,241.805,498.624,228.334,482.071,228.334z M445.693,304.354l-40.772,53.813
				c-2.202-2.902-5.094-6.715-8.937-11.789l31.835-42.023H445.693z M408.993,304.354l-22.428,29.593l-22.428-29.593H408.993z
				 M395.503,370.597l-8.937,11.789l-8.937-11.789l8.937-11.799L395.503,370.597z M345.313,304.354l31.835,42.013l-8.937,11.799
				l-37.49-49.479l-3.002-4.333H345.313z M358.794,370.597l-37.49,49.479l-37.49-49.479l37.49-49.479L358.794,370.597z
				 M311.887,432.506l-8.937,11.799l-37.49-49.489l8.937-11.799L311.887,432.506z M297.555,304.354c0.891,0,4.383,0,16.223-0.02
				l-39.381,53.833l-8.937-11.799l31.835-42.013H297.555z M278.47,304.354l-22.428,29.593l-22.428-29.593H278.47z M264.98,370.597
				l-8.937,11.799l-8.937-11.799l8.937-11.799L264.98,370.597z M214.79,304.354l31.835,42.013l-8.937,11.799c0,0,0,0-0.01-0.01
				c0-0.01-0.01-0.02-0.02-0.03s-0.01-0.02-0.02-0.02c0-0.01-0.01-0.01-0.01-0.02c0,0,0-0.01-0.01-0.01
				c-0.01-0.01-0.01-0.02-0.02-0.03l-0.006-0.006l-0.024-0.024v-0.008c0-0.001,0,0,0-0.002c-0.01-0.01-0.01-0.02-0.02-0.03
				l-0.01-0.01c0,0,0-0.01-0.01-0.01c-0.01-0.02-0.02-0.03-0.02-0.03c-1.061-1.381-7.576-9.948-40.762-53.572H214.79z
				 M246.625,394.816l-37.49,49.489l-8.937-11.799l37.49-49.489L246.625,394.816z M228.271,370.597l-37.49,49.479l-37.49-49.479
				l37.49-49.479L228.271,370.597z M184.296,304.354L184.296,304.354l-2.932,4.333l-37.49,49.479l-8.937-11.799l31.835-42.013
				H184.296z M147.947,304.354c-10.098,13.321-17.334,22.878-22.428,29.593l-22.418-29.593H147.947z M134.456,370.597l-8.937,11.789
				l-8.937-11.789l8.937-11.799L134.456,370.597z M84.267,304.354l31.835,42.013c-0.45,0.721-8.857,11.699-8.937,11.799
				l-40.772-53.813H84.267z M53.953,312.791l43.795,57.806l-20.806,27.462C62.569,372.849,54.243,343.756,53.953,312.791z
				 M94.455,423.379c-3.143-3.783-6.135-7.716-8.957-11.759l21.667-28.603l8.937,11.799L94.455,423.379z M153.251,469.615
				c-18.134-8.837-34.537-20.686-48.548-34.898l20.816-27.472l37.49,49.479L153.251,469.615z M167.422,475.75l5.004-6.595
				l8.417,11.109C176.289,478.943,171.816,477.431,167.422,475.75z M172.426,444.305l-37.49-49.489l8.937-11.789l37.49,49.479
				L172.426,444.305z M190.781,468.524l-8.937-11.799l8.937-11.789l8.937,11.799L190.781,468.524z M203.471,485.267l-3.273-4.323
				l8.927-11.789c9.988,13.18,12.77,16.853,13.431,17.724c0,0,0.01,0.01,0.03,0.04v0.01c0.01,0.01,0.01,0.01,0.02,0.03h0.009
				c0.013,0.017,0.025,0.032,0.037,0.05c0-0.001,0-0.001-0.001-0.002c-0.016-0.021-0.025-0.033-0.036-0.048h0h0.001
				c0.01,0.01,0.02,0.03,0.04,0.05c0.05,0.06,0.07,0.1,0.08,0.11C216.211,486.859,209.786,486.228,203.471,485.267z
				 M270.384,487.279h-28.683l-23.148-30.554l37.49-49.479l37.49,49.479L270.384,487.279z M308.654,485.217
				c-6.335,0.991-12.78,1.631-19.305,1.902l13.611-17.964l8.927,11.789L308.654,485.217z M321.304,468.524l-8.937-11.789
				l8.937-11.799l8.937,11.789L321.304,468.524z M368.211,383.027l8.937,11.789l-37.49,49.489l-8.937-11.799L368.211,383.027z
				 M331.352,480.113l8.307-10.959l4.894,6.455C340.229,477.281,335.826,478.782,331.352,480.113z M358.694,469.425l-9.618-12.7
				l37.49-49.479l20.616,27.201C393.161,448.679,376.768,460.558,358.694,469.425z M417.43,423.128l-21.447-28.312l8.937-11.799
				l21.487,28.362C423.575,415.422,420.583,419.335,417.43,423.128z M434.984,397.848c-14.161-18.705-18.595-24.549-20.646-27.262
				l43.729-57.698C457.873,342.92,449.773,372.073,434.984,397.848z"/>
			<path d="M237.572,358.015c0.007,0.009,0.013,0.017,0.02,0.026c-0.003-0.004-0.006-0.008-0.009-0.012
				C237.579,358.025,237.575,358.019,237.572,358.015z"/>
		</g>
	</g>
</g>
<g>
</g>
<g>
</g>
<g>
</g>
<g>
</g>
<g>
</g>
<g>
</g>
<g>
</g>
<g>
</g>
<g>
</g>
<g>
</g>
<g>
</g>
<g>
</g>
<g>
</g>
<g>
</g>
<g>
</g>
</svg>
