<svg xmlns="http://www.w3.org/2000/svg" width="850.029" height="87.781" viewBox="0 0 850.029 87.781">
  <defs>
    <style>
      .cls-1 {
        fill: #a92925;
        fill-rule: evenodd;
      }
    </style>
  </defs>
  <path id="петровские_пироги" data-name="петровские пироги" class="cls-1" d="M534.8,99.068v51.072a2.439,2.439,0,0,0,.852,1.96,3,3,0,0,0,2.021.728h7.023a2.364,2.364,0,0,0,2.66-2.688V104q0-2.574,2.021-2.576h15.96q2.447,0,2.447,2.576v46.144a2.53,2.53,0,0,0,2.66,2.688h7.129a2.443,2.443,0,0,0,1.862-.728,2.724,2.724,0,0,0,.692-1.96V99.068a2.937,2.937,0,0,0-.692-2.016,2.363,2.363,0,0,0-1.862-.784h-39.9a2.885,2.885,0,0,0-2.021.784,2.614,2.614,0,0,0-.852,2.016h0ZM625.235,142.3a1.784,1.784,0,0,0-1.17.448,13.321,13.321,0,0,1-5.054,3.584,5.445,5.445,0,0,1-3.777,0q-8.088-3.246-13.087-15.9a2.521,2.521,0,0,1,0-1.456,2.365,2.365,0,0,1,.744-1.12H603a6.159,6.159,0,0,1,2.766-.9,5.3,5.3,0,0,1,2.767.56,20.34,20.34,0,0,1,3.4,1.9,7.711,7.711,0,0,0,2.98,1.344,3.9,3.9,0,0,0,3.085-.672,9.427,9.427,0,0,0,2.022-1.68q1.17-1.118,1.915-1.9,0.639-.781,1.383-1.792a1.586,1.586,0,0,0,.373-1.12,2.825,2.825,0,0,0-.373-1.12l-0.638-.672a1.857,1.857,0,0,0-.9-0.56,1.278,1.278,0,0,0-.9.112,5.616,5.616,0,0,1-1.49.448,2.419,2.419,0,0,1-1.223-.336q-0.587-.336-1.224-0.672a1.361,1.361,0,0,0-.532-0.336,10.564,10.564,0,0,0-5.745-1.68q-2.13.114-5.64,2.352-1.491.9-2.66,1.68a1.306,1.306,0,0,1-1.436.224,1.705,1.705,0,0,1-.9-1.232q-1.385-10.752,2.66-17.136a4.95,4.95,0,0,1,2.606-2.016,5.173,5.173,0,0,1,3.352,0,18.009,18.009,0,0,1,7.448,5.712,1.448,1.448,0,0,0,1.064.616,1.539,1.539,0,0,0,1.17-.392,26.982,26.982,0,0,1,7.98-4.928,1.69,1.69,0,0,0,1.064-1.4,1.562,1.562,0,0,0-.638-1.512,42.052,42.052,0,0,0-12.981-5.712,7.879,7.879,0,0,0-3.724,0,30.982,30.982,0,0,0-16.066,10.752,30.258,30.258,0,0,0,.053,37.52,30.607,30.607,0,0,0,16.226,10.64,8.012,8.012,0,0,0,3.511.112,23.258,23.258,0,0,0,13.513-7.84,1.836,1.836,0,0,0,0-2.352l-0.851-1.008A1.6,1.6,0,0,0,625.235,142.3ZM683.6,97.22a2.046,2.046,0,0,0-1.755-1.064H632.47a1.81,1.81,0,0,0-1.649,1.064,2.485,2.485,0,0,0-.053,2.3,47.012,47.012,0,0,1,2.181,5.207,54.456,54.456,0,0,1,1.649,5.544,1.281,1.281,0,0,0,1.011,1.232,1.126,1.126,0,0,0,1.223-.672l1.7-2.688a11.964,11.964,0,0,1,4.735-4.7,13.2,13.2,0,0,1,6.33-1.568,1.99,1.99,0,0,1,1.011.28,0.833,0.833,0,0,1,.479.728v47.152a3.005,3.005,0,0,0,.745,2.072,2.327,2.327,0,0,0,1.809.84h7.128a2.609,2.609,0,0,0,1.969-.84,2.891,2.891,0,0,0,.8-2.072V102.875a0.969,0.969,0,0,1,1.17-1.008,13.526,13.526,0,0,1,6.384,1.568,11.892,11.892,0,0,1,4.788,4.7l1.7,2.688a1.266,1.266,0,0,0,1.276.672,1.28,1.28,0,0,0,.958-1.232,53.952,53.952,0,0,1,1.649-5.544,36.171,36.171,0,0,1,2.288-5.207A2.3,2.3,0,0,0,683.6,97.22Zm24.525-1.96a24.106,24.106,0,0,0-8.193,3.92,25.471,25.471,0,0,0-6.171,6.608,31.045,31.045,0,0,0-3.883,8.736,38.081,38.081,0,0,0-1.33,10.192,94.5,94.5,0,0,0,.691,11.032q0.692,5.88,1.33,12.768t0.905,14.9a130.371,130.371,0,0,1-.692,17.416,0.7,0.7,0,0,0,.106.84,3.147,3.147,0,0,0,.852.5,6.836,6.836,0,0,0,3.67-.112,9.671,9.671,0,0,0,3.458-1.9,11.352,11.352,0,0,0,2.66-3.3,11.043,11.043,0,0,0,1.277-4.312q0.212-3.249.16-5.712t-0.213-4.76q-0.159-2.3-.372-4.648t-0.32-5.264a0.874,0.874,0,0,1,.32-1.064,0.784,0.784,0,0,1,1.064.056,11.169,11.169,0,0,0,2.181,1.176,20.773,20.773,0,0,1,2.075.952,9.221,9.221,0,0,0,4.788.672A29.826,29.826,0,0,0,721.1,149.8a31.344,31.344,0,0,0,11.7-15.232,28.754,28.754,0,0,0,1.7-9.856,29.539,29.539,0,0,0-1.755-10.192,32.281,32.281,0,0,0-4.788-8.736,29.7,29.7,0,0,0-7.076-6.608,29.238,29.238,0,0,0-8.618-3.92,12.847,12.847,0,0,0-4.15,0h0Zm-7.82,15.792A21.1,21.1,0,0,1,702.8,105a14.009,14.009,0,0,1,1.6-2.128q0.744-.781,2.447-0.112a19.1,19.1,0,0,1,7.927,6.328,32.649,32.649,0,0,1,5.693,11.48,21.875,21.875,0,0,1,1.33,7,27.67,27.67,0,0,1-.639,6.5,31.117,31.117,0,0,1-4.309,10.248,10.867,10.867,0,0,1-3.777,3.976,4.511,4.511,0,0,1-3.458.616,10.567,10.567,0,0,1-3.565-2.688,17.113,17.113,0,0,1-2.287-3.36q-0.854-1.68-1.6-3.248a22.008,22.008,0,0,1-1.33-3.752,38.579,38.579,0,0,1-.958-5.152q-0.374-2.966-.479-7.448Q699.077,115.309,700.3,111.051Zm81.449,32.088a31.122,31.122,0,0,1-15.96,10.7,8.32,8.32,0,0,1-3.831,0,30.822,30.822,0,0,1-16.013-10.7,30.068,30.068,0,0,1,0-37.184,30.839,30.839,0,0,1,16.013-10.7,6.7,6.7,0,0,1,3.831,0,31.139,31.139,0,0,1,15.96,10.7A29.875,29.875,0,0,1,781.749,143.139Zm-24.526-40.376a4.95,4.95,0,0,0-2.606,2.016q-5.216,8.736-1.171,23.52,4.893,14.338,13.726,17.92a4.577,4.577,0,0,0,3.3.112,5.3,5.3,0,0,0,2.66-2.128q5.212-8.622,1.171-23.52-4.9-14.334-13.726-17.92A5.173,5.173,0,0,0,757.223,102.763Zm63.148,19.152a1.118,1.118,0,0,1,0-1.9l4.575-2.352q7.128-3.806,8.246-8.736a9.675,9.675,0,0,0-2.128-8.792,11.106,11.106,0,0,0-8.99-3.864h-23.94a2.441,2.441,0,0,0-1.916.84,2.861,2.861,0,0,0-.744,1.96v51.072a2.857,2.857,0,0,0,.744,1.96,2.441,2.441,0,0,0,1.916.84H824.1q6.169,0,9.523-2.856a11.63,11.63,0,0,0,4.1-6.832,13.943,13.943,0,0,0-.744-7.784,11.153,11.153,0,0,0-5.108-5.824Zm-11.917-19.6a1.825,1.825,0,0,1,1.384-.56h5.745a4.883,4.883,0,0,1,4.841,2.8,7.972,7.972,0,0,1,.054,6.328q-1.278,3.528-5.64,5.992l-5,2.688a1.21,1.21,0,0,1-1.277-.056,1.287,1.287,0,0,1-.639-1.176V103.659A1.887,1.887,0,0,1,808.454,102.315Zm1.384,45.248a1.814,1.814,0,0,1-1.384-.56,2.021,2.021,0,0,1-.532-1.456V130.091a5.546,5.546,0,0,1,2.873-4.928l1.064-.672a2.9,2.9,0,0,1,3.086.224l4.256,2.8q5.107,3.587,5.852,8.232a10.491,10.491,0,0,1-1.915,8.232,8.957,8.957,0,0,1-7.661,3.584h-5.639Zm71.074-5.824a1.6,1.6,0,0,0-1.17.56,12.644,12.644,0,0,1-5.054,3.528,5.856,5.856,0,0,1-3.671.056q-8.832-3.582-13.725-18.032-4.151-14.784,1.17-23.52a4.948,4.948,0,0,1,2.607-2.016,5.17,5.17,0,0,1,3.351,0,18,18,0,0,1,7.448,5.712,1.415,1.415,0,0,0,1.011.616,1.469,1.469,0,0,0,1.117-.392,26.982,26.982,0,0,1,7.98-4.928,1.663,1.663,0,0,0,1.064-1.344,1.686,1.686,0,0,0-.744-1.568,40.967,40.967,0,0,0-12.768-5.6,7.879,7.879,0,0,0-3.724,0,31.115,31.115,0,0,0-15.96,10.7,29.857,29.857,0,0,0,.053,37.24,30.607,30.607,0,0,0,16.119,10.64,7.95,7.95,0,0,0,3.512.112,23.2,23.2,0,0,0,13.406-7.84,1.915,1.915,0,0,0,.426-1.176,1.5,1.5,0,0,0-.426-1.064l-0.958-1.12A1.292,1.292,0,0,0,880.912,141.739Zm42.347,11.312h7.448a2.377,2.377,0,0,0,1.916-.9,2.938,2.938,0,0,0,.744-1.9,45.716,45.716,0,0,0-2.021-12.04,28.285,28.285,0,0,0-4.469-8.736,22.5,22.5,0,0,0-6.437-5.656,26.848,26.848,0,0,0-7.821-3.024,0.974,0.974,0,0,1-.638-0.672,1.312,1.312,0,0,1,.106-0.9,25.815,25.815,0,0,1,4.044-6.216,15.793,15.793,0,0,1,4.043-3.3,7.283,7.283,0,0,1,3.617-.952,8.106,8.106,0,0,1,2.98.616,1.687,1.687,0,0,0,1.489-.28,1.884,1.884,0,0,0,.851-1.4,48.4,48.4,0,0,1,2.873-8.4,2.118,2.118,0,0,0,.053-1.792,1.786,1.786,0,0,0-1.223-1.12,15.272,15.272,0,0,0-5.373-.56,9.472,9.472,0,0,0-5.214,2.576,35.41,35.41,0,0,0-5.958,7.335q-3.247,4.986-7.608,13.5a1.321,1.321,0,0,1-1.17.672,1.355,1.355,0,0,1-1.277-1.456V99.292a3.019,3.019,0,0,0-.745-2.072,2.445,2.445,0,0,0-1.915-.84h-7.235a2.441,2.441,0,0,0-1.916.84,3.009,3.009,0,0,0-.744,2.072v50.96a2.8,2.8,0,0,0,.744,2.016,2.518,2.518,0,0,0,1.916.784h7.235a2.522,2.522,0,0,0,1.915-.784,2.809,2.809,0,0,0,.745-2.016V127.179a2.113,2.113,0,0,1,.585-1.512,1.515,1.515,0,0,1,1.543-.392,12.558,12.558,0,0,1,8.991,5.32,24.732,24.732,0,0,1,3.564,7.56,46.758,46.758,0,0,1,1.7,12.208,2.656,2.656,0,0,0,.745,1.9,2.517,2.517,0,0,0,1.915.784h0Zm26.812-56.783a2.7,2.7,0,0,1,2.66,2.688v20.383a1.316,1.316,0,0,0,.585,1.176,1.292,1.292,0,0,0,1.33.056l12.236-5.936q6.065-3.582,6.065-10.08v-5.6a2.7,2.7,0,0,1,2.66-2.688h7.235a2.529,2.529,0,0,1,1.915.784,2.668,2.668,0,0,1,.745,1.9v51.3a2.862,2.862,0,0,1-.745,1.96,2.444,2.444,0,0,1-1.915.84h-7.235a2.491,2.491,0,0,1-1.862-.84,2.754,2.754,0,0,1-.8-1.96V120.683a1.364,1.364,0,0,0-.585-1.12,1.062,1.062,0,0,0-1.224-.112l-12.129,5.712q-6.281,3.587-6.278,10.08v15.008a2.754,2.754,0,0,1-.8,1.96,2.494,2.494,0,0,1-1.862.84h-7.235a2.491,2.491,0,0,1-1.862-.84,2.754,2.754,0,0,1-.8-1.96v-51.3a2.7,2.7,0,0,1,2.66-2.688h7.235ZM1030.3,142.3a1.767,1.767,0,0,0-1.17.448,13.318,13.318,0,0,1-5.06,3.584,5.455,5.455,0,0,1-3.78,0q-8.085-3.246-13.08-15.9a2.431,2.431,0,0,1,.74-2.576h0.11a6.173,6.173,0,0,1,2.77-.9,5.27,5.27,0,0,1,2.76.56,20.475,20.475,0,0,1,3.41,1.9,7.666,7.666,0,0,0,2.98,1.344,3.885,3.885,0,0,0,3.08-.672,9.4,9.4,0,0,0,2.02-1.68q1.17-1.118,1.92-1.9,0.63-.781,1.38-1.792a1.573,1.573,0,0,0,.37-1.12,2.757,2.757,0,0,0-.37-1.12l-0.64-.672a1.827,1.827,0,0,0-.9-0.56,1.3,1.3,0,0,0-.91.112,5.5,5.5,0,0,1-1.49.448,2.425,2.425,0,0,1-1.22-.336c-0.39-.224-0.8-0.448-1.22-0.672a1.43,1.43,0,0,0-.53-0.336,10.585,10.585,0,0,0-5.75-1.68q-2.13.114-5.64,2.352c-0.99.6-1.88,1.159-2.66,1.68a1.314,1.314,0,0,1-1.44.224,1.7,1.7,0,0,1-.9-1.232q-1.38-10.752,2.66-17.136a4.967,4.967,0,0,1,2.61-2.016,5.167,5.167,0,0,1,3.35,0,18.026,18.026,0,0,1,7.45,5.712,1.428,1.428,0,0,0,1.06.616,1.54,1.54,0,0,0,1.17-.392,26.956,26.956,0,0,1,7.98-4.928,1.682,1.682,0,0,0,1.06-1.4,1.567,1.567,0,0,0-.63-1.512,42.192,42.192,0,0,0-12.98-5.712,7.9,7.9,0,0,0-3.73,0,30.991,30.991,0,0,0-16.065,10.752,30.262,30.262,0,0,0,.053,37.52,30.616,30.616,0,0,0,16.222,10.64,8.053,8.053,0,0,0,3.52.112,23.256,23.256,0,0,0,13.51-7.84,1.856,1.856,0,0,0,0-2.352l-0.85-1.008A1.614,1.614,0,0,0,1030.3,142.3Zm45.53-43.232v51.072a2.442,2.442,0,0,0,.86,1.96,2.984,2.984,0,0,0,2.02.728h7.02a2.365,2.365,0,0,0,2.66-2.688V104c0-1.716.67-2.576,2.02-2.576h15.96c1.63,0,2.45.86,2.45,2.576v46.144a2.523,2.523,0,0,0,2.66,2.688h7.13a2.435,2.435,0,0,0,1.86-.728,2.727,2.727,0,0,0,.69-1.96V99.068a2.941,2.941,0,0,0-.69-2.016,2.356,2.356,0,0,0-1.86-.784h-39.9a2.872,2.872,0,0,0-2.02.784,2.617,2.617,0,0,0-.86,2.016h0Zm64.27-2.8a2.7,2.7,0,0,1,2.66,2.688v20.383a1.314,1.314,0,0,0,.58,1.176,1.294,1.294,0,0,0,1.33.056l12.24-5.936q6.06-3.582,6.07-10.08v-5.6a2.572,2.572,0,0,1,.79-1.9,2.609,2.609,0,0,1,1.87-.784h7.23a2.545,2.545,0,0,1,1.92.784,2.689,2.689,0,0,1,.74,1.9v51.3a2.886,2.886,0,0,1-.74,1.96,2.458,2.458,0,0,1-1.92.84h-7.23a2.52,2.52,0,0,1-1.87-.84,2.755,2.755,0,0,1-.79-1.96V120.683a1.367,1.367,0,0,0-.59-1.12,1.057,1.057,0,0,0-1.22-.112l-12.13,5.712q-6.285,3.587-6.28,10.08v15.008a2.764,2.764,0,0,1-.8,1.96,2.484,2.484,0,0,1-1.86.84h-7.24a2.484,2.484,0,0,1-1.86-.84,2.764,2.764,0,0,1-.8-1.96v-51.3a2.7,2.7,0,0,1,2.66-2.688h7.24Zm63.84-1.008a24.092,24.092,0,0,0-8.19,3.92,25.282,25.282,0,0,0-6.17,6.608,30.946,30.946,0,0,0-3.89,8.736,38,38,0,0,0-1.33,10.192,94.925,94.925,0,0,0,.69,11.032q0.69,5.88,1.33,12.768t0.91,14.9a132.738,132.738,0,0,1-.69,17.416,0.692,0.692,0,0,0,.1.84,3.348,3.348,0,0,0,.85.5,6.834,6.834,0,0,0,3.67-.112,9.654,9.654,0,0,0,3.46-1.9,11.255,11.255,0,0,0,2.66-3.3,10.979,10.979,0,0,0,1.28-4.312c0.14-2.166.19-4.07,0.16-5.712s-0.11-3.23-.21-4.76-0.23-3.08-.38-4.648-0.25-3.323-.32-5.264a0.885,0.885,0,0,1,.32-1.064,0.792,0.792,0,0,1,1.07.056,11.051,11.051,0,0,0,2.18,1.176,21.022,21.022,0,0,1,2.07.952,9.238,9.238,0,0,0,4.79.672,29.862,29.862,0,0,0,8.62-4.144,31.337,31.337,0,0,0,11.7-15.232,28.618,28.618,0,0,0,1.71-9.856,29.542,29.542,0,0,0-1.76-10.192,32.287,32.287,0,0,0-4.79-8.736,29.73,29.73,0,0,0-7.07-6.608,29.284,29.284,0,0,0-8.62-3.92,12.848,12.848,0,0,0-4.15,0h0Zm-7.82,15.792a21.013,21.013,0,0,1,2.5-6.048,14,14,0,0,1,1.6-2.128c0.49-.521,1.31-0.56,2.44-0.112a19.1,19.1,0,0,1,7.93,6.328,32.645,32.645,0,0,1,5.69,11.48,21.712,21.712,0,0,1,1.33,7,27.407,27.407,0,0,1-.64,6.5,30.3,30.3,0,0,1-1.86,5.712,29.268,29.268,0,0,1-2.45,4.536,10.808,10.808,0,0,1-3.77,3.976,4.521,4.521,0,0,1-3.46.616,10.606,10.606,0,0,1-3.57-2.688,17.063,17.063,0,0,1-2.28-3.36c-0.57-1.12-1.1-2.2-1.6-3.248a21.837,21.837,0,0,1-1.33-3.752,39.039,39.039,0,0,1-.96-5.152q-0.375-2.966-.48-7.448Q1194.9,115.309,1196.12,111.051Zm81.45,32.088a31.138,31.138,0,0,1-15.96,10.7,8.316,8.316,0,0,1-3.83,0,30.852,30.852,0,0,1-16.02-10.7,30.094,30.094,0,0,1,0-37.184,30.869,30.869,0,0,1,16.02-10.7,6.7,6.7,0,0,1,3.83,0,31.155,31.155,0,0,1,15.96,10.7A29.875,29.875,0,0,1,1277.57,143.139Zm-24.53-40.376a4.906,4.906,0,0,0-2.6,2.016q-5.22,8.736-1.17,23.52,4.89,14.338,13.72,17.92a4.583,4.583,0,0,0,3.3.112,5.321,5.321,0,0,0,2.66-2.128q5.205-8.622,1.17-23.52-4.89-14.334-13.73-17.92A5.167,5.167,0,0,0,1253.04,102.763Zm38.25-3.808v51.184a2.791,2.791,0,0,0,.75,2.016,2.5,2.5,0,0,0,1.91.784h7.45a2.4,2.4,0,0,0,1.81-.784,2.827,2.827,0,0,0,.74-2.016v-46.7a2.223,2.223,0,0,1,.48-1.4,1.592,1.592,0,0,1,1.33-.616h8.3a12.447,12.447,0,0,1,6.49,1.848,13.471,13.471,0,0,1,4.9,5.1l1.06,2.128a1.2,1.2,0,0,0,1.28.56,1.384,1.384,0,0,0,1.17-1.008,31.231,31.231,0,0,1,1.65-5.376q1.11-2.8,2.18-5.376a2.09,2.09,0,0,0-.05-2.072,1.947,1.947,0,0,0-1.76-.952h-37.03a2.537,2.537,0,0,0-2.66,2.688h0Zm58.1-2.688a2.7,2.7,0,0,1,2.66,2.688v20.383a1.314,1.314,0,0,0,.58,1.176,1.292,1.292,0,0,0,1.33.056l12.24-5.936q6.06-3.582,6.06-10.08v-5.6a2.7,2.7,0,0,1,2.66-2.688h7.24a2.508,2.508,0,0,1,1.91.784,2.656,2.656,0,0,1,.75,1.9v51.3a2.848,2.848,0,0,1-.75,1.96,2.423,2.423,0,0,1-1.91.84h-7.24a2.484,2.484,0,0,1-1.86-.84,2.764,2.764,0,0,1-.8-1.96V120.683a1.356,1.356,0,0,0-.58-1.12,1.071,1.071,0,0,0-1.23-.112l-12.13,5.712q-6.27,3.587-6.27,10.08v15.008a2.764,2.764,0,0,1-.8,1.96,2.5,2.5,0,0,1-1.86.84h-7.24a2.484,2.484,0,0,1-1.86-.84,2.764,2.764,0,0,1-.8-1.96v-51.3a2.7,2.7,0,0,1,2.66-2.688h7.24Z" transform="translate(-534.781 -94.594)"/>
</svg>
