<svg xmlns="http://www.w3.org/2000/svg" width="231.22" height="88.75" viewBox="0 0 231.22 88.75">
  <defs>
    <style>
      .cls-1 {
        fill: #a92925;
        fill-rule: evenodd;
      }
    </style>
  </defs>
  <path id="петровские_пироги" data-name="петровские пироги" class="cls-1" d="M1316.3,63.928V87.64a1.142,1.142,0,0,0,.39.91,1.4,1.4,0,0,0,.94.338h3.26a1.1,1.1,0,0,0,1.23-1.248V66.216a0.964,0.964,0,0,1,.94-1.2h7.41a1.033,1.033,0,0,1,1.14,1.2V87.64a1.181,1.181,0,0,0,.35.91,1.2,1.2,0,0,0,.88.338h3.31a1.144,1.144,0,0,0,.87-0.338,1.283,1.283,0,0,0,.32-0.91V63.928a1.383,1.383,0,0,0-.32-0.936,1.105,1.105,0,0,0-.87-0.364h-18.52a1.342,1.342,0,0,0-.94.364,1.224,1.224,0,0,0-.39.936h0ZM1358.29,84a0.85,0.85,0,0,0-.55.208,6.217,6.217,0,0,1-2.34,1.664,2.546,2.546,0,0,1-1.76,0q-3.75-1.508-6.07-7.384a1.113,1.113,0,0,1,0-.676,1.082,1.082,0,0,1,.34-0.52h0.05a2.857,2.857,0,0,1,1.29-.416,2.458,2.458,0,0,1,1.28.26,9.489,9.489,0,0,1,1.58.884,3.608,3.608,0,0,0,1.38.624,1.829,1.829,0,0,0,1.44-.312,4.3,4.3,0,0,0,.93-0.78c0.37-.346.66-0.641,0.89-0.884,0.2-.242.42-0.52,0.65-0.832a0.723,0.723,0,0,0,.17-0.52,1.515,1.515,0,0,0-.17-0.52l-0.3-.312a0.843,0.843,0,0,0-.42-0.26,0.588,0.588,0,0,0-.42.052,2.6,2.6,0,0,1-.69.208,1.122,1.122,0,0,1-.57-0.156q-0.27-.156-0.57-0.312a0.615,0.615,0,0,0-.24-0.156,4.94,4.94,0,0,0-2.67-.78,5.983,5.983,0,0,0-2.62,1.092c-0.46.278-.87,0.538-1.24,0.78a0.6,0.6,0,0,1-.66.1,0.766,0.766,0,0,1-.42-0.572q-0.645-4.992,1.23-7.956a2.312,2.312,0,0,1,1.21-.936,2.408,2.408,0,0,1,1.56,0,8.365,8.365,0,0,1,3.46,2.652,0.661,0.661,0,0,0,.49.286,0.7,0.7,0,0,0,.54-0.182,12.618,12.618,0,0,1,3.71-2.288,0.77,0.77,0,0,0,.49-0.65,0.706,0.706,0,0,0-.29-0.7,19.5,19.5,0,0,0-6.03-2.652,3.661,3.661,0,0,0-1.73,0,14.409,14.409,0,0,0-7.46,4.992,14.052,14.052,0,0,0,.03,17.42,14.173,14.173,0,0,0,7.53,4.94,3.722,3.722,0,0,0,1.63.052,10.8,10.8,0,0,0,6.27-3.64,0.845,0.845,0,0,0,0-1.092l-0.39-.468A0.755,0.755,0,0,0,1358.29,84Zm27.09-20.93a0.948,0.948,0,0,0-.81-0.494h-22.93a0.832,0.832,0,0,0-.76.494,1.174,1.174,0,0,0-.03,1.066,21.508,21.508,0,0,1,1.02,2.418,26.455,26.455,0,0,1,.76,2.574,0.6,0.6,0,0,0,.47.572,0.523,0.523,0,0,0,.57-0.312l0.79-1.248a5.534,5.534,0,0,1,2.2-2.184,6.1,6.1,0,0,1,2.94-.728,0.94,0.94,0,0,1,.47.13,0.38,0.38,0,0,1,.22.338V87.588a1.4,1.4,0,0,0,.34.962,1.1,1.1,0,0,0,.84.39h3.31a1.216,1.216,0,0,0,.92-0.39,1.33,1.33,0,0,0,.37-0.962V65.7a0.448,0.448,0,0,1,.54-0.468,6.3,6.3,0,0,1,2.97.728,5.518,5.518,0,0,1,2.22,2.184l0.79,1.248a0.583,0.583,0,0,0,.59.312,0.6,0.6,0,0,0,.45-0.572,23.929,23.929,0,0,1,.76-2.574,18.336,18.336,0,0,1,1.06-2.418A1.066,1.066,0,0,0,1385.38,63.07Zm11.39-.91a11.2,11.2,0,0,0-3.81,1.82,11.792,11.792,0,0,0-2.86,3.068,14.368,14.368,0,0,0-1.8,4.056,17.373,17.373,0,0,0-.62,4.732,42.7,42.7,0,0,0,.32,5.122q0.315,2.73.62,5.928,0.285,3.2.42,6.916a61.865,61.865,0,0,1-.32,8.085,0.332,0.332,0,0,0,.04.39,1.407,1.407,0,0,0,.4.234,3.143,3.143,0,0,0,1.7-.052,4.434,4.434,0,0,0,1.61-.884,5.305,5.305,0,0,0,1.83-3.535c0.06-1.006.09-1.89,0.07-2.652s-0.05-1.5-.1-2.21-0.1-1.43-.17-2.158-0.12-1.543-.15-2.444a0.408,0.408,0,0,1,.15-0.494,0.358,0.358,0,0,1,.49.026,5.318,5.318,0,0,0,1.02.546,9.737,9.737,0,0,1,.96.442,4.272,4.272,0,0,0,2.22.312,13.77,13.77,0,0,0,4-1.924,14.316,14.316,0,0,0,3.26-3.094,14.506,14.506,0,0,0,2.18-3.978,13.856,13.856,0,0,0-.03-9.308,14.826,14.826,0,0,0-2.22-4.056,13.811,13.811,0,0,0-3.28-3.068,13.667,13.667,0,0,0-4.01-1.82,5.924,5.924,0,0,0-1.92,0h0Zm-3.63,7.332a9.434,9.434,0,0,1,1.16-2.808,6.326,6.326,0,0,1,.74-0.988,0.984,0.984,0,0,1,1.13-.052,8.772,8.772,0,0,1,3.68,2.938,15.094,15.094,0,0,1,2.65,5.33,10.379,10.379,0,0,1,.62,3.25,13.393,13.393,0,0,1-.3,3.016,13.985,13.985,0,0,1-.87,2.652,14.272,14.272,0,0,1-1.13,2.106,5.047,5.047,0,0,1-1.76,1.846,2.085,2.085,0,0,1-1.6.286,4.97,4.97,0,0,1-1.66-1.248,8.447,8.447,0,0,1-1.06-1.56c-0.26-.52-0.51-1.022-0.74-1.508a10.233,10.233,0,0,1-.62-1.742,17.418,17.418,0,0,1-.44-2.392,33.157,33.157,0,0,1-.22-3.458A18.823,18.823,0,0,1,1393.14,69.492Zm37.81,14.9a14.456,14.456,0,0,1-7.41,4.966,3.876,3.876,0,0,1-1.78,0,14.308,14.308,0,0,1-7.43-4.966,13.955,13.955,0,0,1,0-17.264,14.312,14.312,0,0,1,7.43-4.966,3.116,3.116,0,0,1,1.78,0,14.461,14.461,0,0,1,7.41,4.966A13.846,13.846,0,0,1,1430.95,84.39Zm-11.38-18.746a2.238,2.238,0,0,0-1.21.936q-2.43,4.056-.55,10.92,2.28,6.657,6.37,8.32a2.15,2.15,0,0,0,1.54.052,2.474,2.474,0,0,0,1.23-.988c1.61-2.669,1.8-6.309.54-10.92q-2.265-6.656-6.37-8.32A2.378,2.378,0,0,0,1419.57,65.644Zm29.31,8.892a0.527,0.527,0,0,1,0-.884l2.13-1.092q3.3-1.767,3.83-4.056a4.521,4.521,0,0,0-.99-4.082,5.173,5.173,0,0,0-4.18-1.794h-11.11a1.138,1.138,0,0,0-.89.39,1.336,1.336,0,0,0-.35.91V87.64a1.335,1.335,0,0,0,.35.91,1.138,1.138,0,0,0,.89.39h12.05a6.606,6.606,0,0,0,4.42-1.326,5.4,5.4,0,0,0,1.91-3.172,6.483,6.483,0,0,0-.35-3.614,5.163,5.163,0,0,0-2.37-2.7Zm-5.53-9.1a0.855,0.855,0,0,1,.64-0.26h2.67a2.266,2.266,0,0,1,2.25,1.3,3.688,3.688,0,0,1,.02,2.938,5.38,5.38,0,0,1-2.61,2.782l-2.33,1.248a0.558,0.558,0,0,1-.59-0.026,0.6,0.6,0,0,1-.3-0.546V66.06A0.9,0.9,0,0,1,1443.35,65.436Zm0.64,21.008a0.852,0.852,0,0,1-.64-0.26,0.962,0.962,0,0,1-.25-0.676V78.332a2.579,2.579,0,0,1,1.34-2.288l0.49-.312a1.337,1.337,0,0,1,1.43.1l1.98,1.3a5.891,5.891,0,0,1,2.72,3.822,4.882,4.882,0,0,1-.89,3.822,4.17,4.17,0,0,1-3.56,1.664h-2.62Zm33-2.7a0.722,0.722,0,0,0-.54.26,5.854,5.854,0,0,1-2.35,1.638,2.711,2.711,0,0,1-1.7.026q-4.11-1.664-6.37-8.372-1.935-6.864.54-10.92a2.312,2.312,0,0,1,1.21-.936,2.408,2.408,0,0,1,1.56,0,8.341,8.341,0,0,1,3.45,2.652,0.66,0.66,0,0,0,.47.286,0.683,0.683,0,0,0,.52-0.182,12.49,12.49,0,0,1,3.71-2.288,0.757,0.757,0,0,0,.14-1.352,18.992,18.992,0,0,0-5.92-2.6,3.66,3.66,0,0,0-1.73,0,14.461,14.461,0,0,0-7.41,4.966,13.272,13.272,0,0,0-3.02,8.606,13.409,13.409,0,0,0,3.04,8.684,14.223,14.223,0,0,0,7.49,4.94,3.689,3.689,0,0,0,1.63.052,10.763,10.763,0,0,0,6.22-3.64,0.9,0.9,0,0,0,.2-0.546,0.7,0.7,0,0,0-.2-0.494l-0.44-.52A0.617,0.617,0,0,0,1476.99,83.74Zm19.66,5.252h3.46a1.106,1.106,0,0,0,.89-0.416,1.37,1.37,0,0,0,.35-0.884,21.556,21.556,0,0,0-.94-5.59,13.111,13.111,0,0,0-2.08-4.056,10.31,10.31,0,0,0-2.99-2.626,12.318,12.318,0,0,0-3.63-1.4,0.449,0.449,0,0,1-.29-0.312,0.556,0.556,0,0,1,.05-0.416,11.859,11.859,0,0,1,1.87-2.886,7.41,7.41,0,0,1,1.88-1.534,3.365,3.365,0,0,1,1.68-.442,3.691,3.691,0,0,1,1.38.286,0.807,0.807,0,0,0,.7-0.13,0.862,0.862,0,0,0,.39-0.65,22.572,22.572,0,0,1,1.33-3.9,0.971,0.971,0,0,0,.03-0.832,0.847,0.847,0,0,0-.57-0.52,7.072,7.072,0,0,0-2.49-.26,4.378,4.378,0,0,0-2.42,1.2,16.308,16.308,0,0,0-2.77,3.406,71.082,71.082,0,0,0-3.53,6.266,0.622,0.622,0,0,1-.55.312,0.631,0.631,0,0,1-.59-0.676V64.031a1.4,1.4,0,0,0-.34-0.962,1.153,1.153,0,0,0-.89-0.39h-3.36a1.124,1.124,0,0,0-.89.39,1.4,1.4,0,0,0-.35.962v23.66a1.307,1.307,0,0,0,.35.936,1.161,1.161,0,0,0,.89.364h3.36a1.191,1.191,0,0,0,.89-0.364,1.3,1.3,0,0,0,.34-0.936V76.98a0.985,0.985,0,0,1,.27-0.7,0.706,0.706,0,0,1,.72-0.182,6.057,6.057,0,0,1,2.12.65,5.98,5.98,0,0,1,2.05,1.82,11.26,11.26,0,0,1,1.66,3.51,21.887,21.887,0,0,1,.79,5.668,1.233,1.233,0,0,0,.34.884,1.176,1.176,0,0,0,.89.364h0Zm12.45-26.364a1.253,1.253,0,0,1,1.24,1.248V73.34a0.614,0.614,0,0,0,.27.546,0.605,0.605,0,0,0,.62.026l5.68-2.756a5.189,5.189,0,0,0,2.81-4.68v-2.6a1.253,1.253,0,0,1,1.24-1.248h3.36a1.178,1.178,0,0,1,.89.364,1.235,1.235,0,0,1,.34.884V87.692a1.326,1.326,0,0,1-.34.91,1.138,1.138,0,0,1-.89.39h-3.36a1.172,1.172,0,0,1-.87-0.39,1.309,1.309,0,0,1-.37-0.91V73.964a0.633,0.633,0,0,0-.27-0.52,0.5,0.5,0,0,0-.57-0.052l-5.63,2.652a5.162,5.162,0,0,0-2.91,4.68v6.968a1.309,1.309,0,0,1-.37.91,1.172,1.172,0,0,1-.87.39h-3.36a1.136,1.136,0,0,1-.86-0.39,1.266,1.266,0,0,1-.37-0.91V63.876a1.253,1.253,0,0,1,1.23-1.248h3.36ZM1546.35,84a0.805,0.805,0,0,0-.54.208,6.237,6.237,0,0,1-2.35,1.664,2.517,2.517,0,0,1-1.75,0q-3.765-1.508-6.08-7.384a1.113,1.113,0,0,1,0-.676,1.1,1.1,0,0,1,.35-0.52h0.04a2.9,2.9,0,0,1,1.29-.416,2.42,2.42,0,0,1,1.28.26,9.108,9.108,0,0,1,1.58.884,3.583,3.583,0,0,0,1.39.624,1.806,1.806,0,0,0,1.43-.312,4.332,4.332,0,0,0,.94-0.78c0.36-.346.66-0.641,0.89-0.884,0.2-.242.41-0.52,0.64-0.832a0.723,0.723,0,0,0,.17-0.52,1.183,1.183,0,0,0-.17-0.52l-0.3-.312a0.843,0.843,0,0,0-.42-0.26,0.6,0.6,0,0,0-.42.052,2.6,2.6,0,0,1-.69.208,1.122,1.122,0,0,1-.57-0.156c-0.18-.1-0.37-0.208-0.56-0.312a0.653,0.653,0,0,0-.25-0.156,4.891,4.891,0,0,0-2.67-.78,5.983,5.983,0,0,0-2.62,1.092q-0.69.417-1.23,0.78a0.611,0.611,0,0,1-.67.1,0.816,0.816,0,0,1-.42-0.572q-0.645-4.992,1.24-7.956a2.275,2.275,0,0,1,1.21-.936,2.378,2.378,0,0,1,1.55,0,8.365,8.365,0,0,1,3.46,2.652,0.678,0.678,0,0,0,.49.286,0.736,0.736,0,0,0,.55-0.182,12.568,12.568,0,0,1,3.7-2.288,0.8,0.8,0,0,0,.5-0.65,0.732,0.732,0,0,0-.3-0.7,19.5,19.5,0,0,0-6.03-2.652,3.619,3.619,0,0,0-1.72,0,14.33,14.33,0,0,0-7.46,4.992,14.034,14.034,0,0,0,.02,17.42,14.248,14.248,0,0,0,7.53,4.94,3.727,3.727,0,0,0,1.63.052,10.794,10.794,0,0,0,6.28-3.64,0.845,0.845,0,0,0,0-1.092l-0.4-.468A0.722,0.722,0,0,0,1546.35,84Zm-186.39,27.928v23.712a1.149,1.149,0,0,0,.4.91,1.4,1.4,0,0,0,.94.338h3.26a1.1,1.1,0,0,0,1.23-1.248V114.215a0.964,0.964,0,0,1,.94-1.2h7.41a1.033,1.033,0,0,1,1.14,1.2v21.424a1.166,1.166,0,0,0,1.23,1.248h3.31a1.143,1.143,0,0,0,.87-0.338,1.282,1.282,0,0,0,.32-0.91V111.927a1.383,1.383,0,0,0-.32-0.936,1.106,1.106,0,0,0-.87-0.364H1361.3a1.343,1.343,0,0,0-.94.364,1.232,1.232,0,0,0-.4.936h0Zm29.84-1.3a1.253,1.253,0,0,1,1.24,1.248v9.464a0.614,0.614,0,0,0,.27.546,0.6,0.6,0,0,0,.62.026l5.68-2.756a5.189,5.189,0,0,0,2.81-4.68v-2.6a1.253,1.253,0,0,1,1.24-1.248h3.36a1.179,1.179,0,0,1,.89.364,1.235,1.235,0,0,1,.34.884v23.816a1.325,1.325,0,0,1-.34.91,1.138,1.138,0,0,1-.89.39h-3.36a1.172,1.172,0,0,1-.87-0.39,1.309,1.309,0,0,1-.37-0.91V121.963a0.633,0.633,0,0,0-.27-0.52,0.5,0.5,0,0,0-.57-0.052l-5.63,2.652a5.162,5.162,0,0,0-2.91,4.68v6.968a1.309,1.309,0,0,1-.37.91,1.172,1.172,0,0,1-.87.39h-3.36a1.151,1.151,0,0,1-.86-0.39,1.266,1.266,0,0,1-.37-0.91V111.875a1.253,1.253,0,0,1,1.23-1.248h3.36Zm29.64-.468a11.24,11.24,0,0,0-3.8,1.82,11.829,11.829,0,0,0-2.87,3.068,14.373,14.373,0,0,0-1.8,4.056,17.772,17.772,0,0,0-.62,4.732,44.874,44.874,0,0,0,.32,5.122c0.22,1.82.42,3.8,0.62,5.928s0.34,4.438.42,6.916a60.168,60.168,0,0,1-.32,8.086,0.317,0.317,0,0,0,.05.39,1.491,1.491,0,0,0,.39.234,3.182,3.182,0,0,0,1.71-.052,4.476,4.476,0,0,0,1.6-.884,5.187,5.187,0,0,0,1.24-1.534,5,5,0,0,0,.59-2c0.07-1,.09-1.889.08-2.652s-0.05-1.5-.1-2.21-0.11-1.43-.18-2.158-0.11-1.542-.14-2.444a0.4,0.4,0,0,1,.14-0.494,0.371,0.371,0,0,1,.5.026,5.252,5.252,0,0,0,1.01.546,9.807,9.807,0,0,1,.96.442,4.309,4.309,0,0,0,2.23.312,13.891,13.891,0,0,0,4-1.924,14.517,14.517,0,0,0,5.43-7.072,13.268,13.268,0,0,0,.79-4.576,13.787,13.787,0,0,0-.81-4.732,15.384,15.384,0,0,0-2.22-4.056,13.856,13.856,0,0,0-3.29-3.068,13.617,13.617,0,0,0-4-1.82,5.983,5.983,0,0,0-1.93,0h0Zm-3.63,7.332a10,10,0,0,1,1.16-2.808,7.029,7.029,0,0,1,.74-0.988,1,1,0,0,1,1.14-.052,8.9,8.9,0,0,1,3.68,2.938,15.081,15.081,0,0,1,2.64,5.33,10.1,10.1,0,0,1,.62,3.25,12.329,12.329,0,0,1-.3,3.016,13.967,13.967,0,0,1-.86,2.652,13.375,13.375,0,0,1-1.14,2.106,5.029,5.029,0,0,1-1.75,1.846,2.107,2.107,0,0,1-1.61.286,4.832,4.832,0,0,1-1.65-1.248,7.561,7.561,0,0,1-1.06-1.56c-0.27-.52-0.51-1.022-0.74-1.508a9.435,9.435,0,0,1-.62-1.742,18.933,18.933,0,0,1-.45-2.392c-0.11-.918-0.19-2.071-0.22-3.458A18.824,18.824,0,0,1,1415.81,117.491Zm37.82,14.9a14.456,14.456,0,0,1-7.41,4.966,3.851,3.851,0,0,1-1.78,0,14.333,14.333,0,0,1-7.44-4.966,13.955,13.955,0,0,1,0-17.264,14.339,14.339,0,0,1,7.44-4.966,3.117,3.117,0,0,1,1.78,0,14.462,14.462,0,0,1,7.41,4.966A13.882,13.882,0,0,1,1453.63,132.389Zm-11.39-18.746a2.314,2.314,0,0,0-1.21.936c-1.61,2.7-1.8,6.344-.54,10.92q2.265,6.657,6.37,8.32a2.124,2.124,0,0,0,1.53.052,2.494,2.494,0,0,0,1.24-.988q2.415-4,.54-10.92-2.28-6.655-6.37-8.32A2.409,2.409,0,0,0,1442.24,113.643Zm17.76-1.768v23.764a1.3,1.3,0,0,0,.34.936,1.175,1.175,0,0,0,.89.364h3.46a1.113,1.113,0,0,0,.84-0.364,1.307,1.307,0,0,0,.35-0.936V113.955a1.02,1.02,0,0,1,.22-0.65,0.739,0.739,0,0,1,.62-0.286h3.85a5.762,5.762,0,0,1,3.01.858,6.225,6.225,0,0,1,2.28,2.366l0.49,0.988a0.556,0.556,0,0,0,.59.26,0.642,0.642,0,0,0,.55-0.468,14.959,14.959,0,0,1,.76-2.5c0.35-.866.69-1.7,1.01-2.5a0.944,0.944,0,0,0-.02-0.962,0.889,0.889,0,0,0-.81-0.442h-17.2a1.166,1.166,0,0,0-1.23,1.248h0Zm26.97-1.248a1.253,1.253,0,0,1,1.24,1.248v9.464a0.614,0.614,0,0,0,.27.546,0.6,0.6,0,0,0,.62.026l5.68-2.756a5.189,5.189,0,0,0,2.81-4.68v-2.6a1.253,1.253,0,0,1,1.24-1.248h3.36a1.194,1.194,0,0,1,.89.364,1.235,1.235,0,0,1,.34.884v23.816a1.325,1.325,0,0,1-.34.91,1.153,1.153,0,0,1-.89.39h-3.36a1.172,1.172,0,0,1-.87-0.39,1.309,1.309,0,0,1-.37-0.91V121.963a0.633,0.633,0,0,0-.27-0.52,0.5,0.5,0,0,0-.57-0.052l-5.63,2.652a5.162,5.162,0,0,0-2.91,4.68v6.968a1.309,1.309,0,0,1-.37.91,1.172,1.172,0,0,1-.87.39h-3.36a1.136,1.136,0,0,1-.86-0.39,1.266,1.266,0,0,1-.37-0.91V111.875a1.253,1.253,0,0,1,1.23-1.248h3.36Z" transform="translate(-1316.28 -61.844)"/>
</svg>
