<svg xmlns="http://www.w3.org/2000/svg" width="13.813" height="13.781" viewBox="0 0 13.813 13.781">
  <defs>
    <style>
      .cls-1 {
        fill: #fff;
        fill-rule: evenodd;
      }
    </style>
  </defs>
  <path id="Rounded_Rectangle_2" data-name="Rounded Rectangle 2" class="cls-1" d="M11.367,9.937L23.411,21.981a0.785,0.785,0,0,1,0,1.111,0.971,0.971,0,0,1-1.237-.183L10.27,11a0.735,0.735,0,0,1-.014-1.068A0.785,0.785,0,0,1,11.367,9.937Zm10.9-.116L10.072,22.078a0.8,0.8,0,0,0,0,1.13,0.979,0.979,0,0,0,1.252-.187l12.05-12.114a0.751,0.751,0,0,0,.014-1.087A0.792,0.792,0,0,0,22.264,9.821Z" transform="translate(-9.844 -9.594)"/>
</svg>
