<svg xmlns="http://www.w3.org/2000/svg" style="display: none;">
    <symbol id="icon-user-auth" viewBox="0 -11 512 512">
        <path d="m474.667969 341.332031h-5.335938v-32c0-29.394531-23.933593-53.332031-53.332031-53.332031s-53.332031 23.9375-53.332031 53.332031v32h-5.335938c-20.585937 0-37.332031 16.746094-37.332031 37.335938v74.664062c0 20.589844 16.746094 37.335938 37.332031 37.335938h117.335938c20.585937 0 37.332031-16.746094 37.332031-37.335938v-74.664062c0-20.589844-16.746094-37.335938-37.332031-37.335938zm-80-32c0-11.753906 9.578125-21.332031 21.332031-21.332031s21.332031 9.578125 21.332031 21.332031v32h-42.664062zm0 0"/>
        <path d="m288 378.667969c0-28.800781 17.644531-53.527344 42.667969-64v-5.335938c0-12.96875 3.132812-25.128906 8.339843-36.160156-16.128906-10.816406-35.5-17.171875-56.339843-17.171875h-181.335938c-55.871093 0-101.332031 45.460938-101.332031 101.332031v74.667969c0 8.832031 7.167969 16 16 16h272zm0 0"/>
        <path d="m298.667969 106.667969c0 58.910156-47.757813 106.664062-106.667969 106.664062s-106.667969-47.753906-106.667969-106.664062c0-58.910157 47.757813-106.667969 106.667969-106.667969s106.667969 47.757812 106.667969 106.667969zm0 0"/>
    </symbol>
    <symbol id="icon-popup-vk" viewBox="0 0 16 10" >
        <path d="M15.9151 8.24422C15.8958 8.20247 15.8777 8.16783 15.8609 8.14008C15.5833 7.64012 15.0528 7.02645 14.2698 6.2989L14.2533 6.28224L14.245 6.27407L14.2366 6.26569H14.2282C13.8728 5.92691 13.6478 5.69911 13.5535 5.58249C13.3811 5.36033 13.3424 5.13546 13.4367 4.9076C13.5033 4.73545 13.7534 4.3719 14.1864 3.81644C14.4142 3.52206 14.5946 3.28613 14.7279 3.10838C15.6887 1.83096 16.1053 1.01468 15.9775 0.659207L15.9279 0.576137C15.8945 0.526126 15.8084 0.480375 15.6698 0.43865C15.5308 0.397013 15.3531 0.390128 15.1364 0.417876L12.7373 0.434449C12.6985 0.420677 12.643 0.421961 12.5707 0.43865C12.4984 0.45534 12.4623 0.463714 12.4623 0.463714L12.4206 0.484577L12.3874 0.50964C12.3596 0.526213 12.3291 0.555362 12.2957 0.597029C12.2626 0.638549 12.2348 0.687276 12.2126 0.742801C11.9514 1.4148 11.6545 2.03959 11.3212 2.61714C11.1157 2.96152 10.9269 3.25998 10.7546 3.51269C10.5825 3.76532 10.4381 3.95144 10.3215 4.07075C10.2048 4.19018 10.0995 4.28585 10.0049 4.35813C9.91044 4.43043 9.83834 4.46098 9.78842 4.4498C9.73838 4.43863 9.69125 4.42754 9.64664 4.41645C9.56894 4.36644 9.50644 4.29843 9.45932 4.21235C9.41199 4.12628 9.38013 4.01794 9.36347 3.88743C9.3469 3.75683 9.33709 3.64449 9.33429 3.55004C9.33169 3.45571 9.33289 3.32228 9.33852 3.15013C9.3443 2.97789 9.3469 2.86135 9.3469 2.80026C9.3469 2.58918 9.35101 2.36011 9.35927 2.11297C9.36767 1.86583 9.37447 1.67002 9.38016 1.52576C9.38582 1.38136 9.38844 1.22859 9.38844 1.06752C9.38844 0.906461 9.37864 0.780149 9.35927 0.688472C9.34013 0.596911 9.31074 0.508036 9.27202 0.421873C9.23307 0.335798 9.17606 0.269214 9.10125 0.221946C9.02629 0.174736 8.93309 0.137271 8.82219 0.109436C8.52781 0.0428222 8.15296 0.00678749 7.69747 0.00118532C6.66454 -0.0099023 6.00083 0.0567984 5.70648 0.2012C5.58985 0.262211 5.48432 0.345573 5.38996 0.451022C5.28996 0.573248 5.27602 0.639949 5.3482 0.65092C5.68147 0.700844 5.91741 0.820269 6.05626 1.00908L6.1063 1.10913C6.14523 1.18132 6.18409 1.30912 6.22299 1.49235C6.26182 1.67559 6.28689 1.87829 6.29792 2.10033C6.32563 2.50582 6.32563 2.85292 6.29792 3.14167C6.27011 3.43053 6.24385 3.6554 6.21878 3.81647C6.19372 3.97753 6.15626 4.10804 6.1063 4.20798C6.05626 4.30794 6.02297 4.36904 6.00628 4.39121C5.98962 4.41339 5.97573 4.42736 5.9647 4.43285C5.89252 4.46051 5.81744 4.4746 5.73974 4.4746C5.66192 4.4746 5.56756 4.43568 5.45651 4.35789C5.34549 4.2801 5.23027 4.17325 5.11084 4.03717C4.99141 3.90105 4.85673 3.71084 4.70673 3.46651C4.55684 3.22217 4.40132 2.9334 4.24026 2.60018L4.107 2.35853C4.0237 2.20307 3.9099 1.97671 3.7655 1.67965C3.62101 1.38247 3.4933 1.09501 3.38228 0.817322C3.3379 0.700697 3.27123 0.611909 3.18238 0.550811L3.14069 0.525747C3.11297 0.503571 3.06847 0.480025 3.00743 0.454932C2.9463 0.429868 2.88252 0.411894 2.81582 0.400836L0.533256 0.417409C0.300008 0.417409 0.141747 0.47025 0.0584143 0.575787L0.0250639 0.62571C0.00840325 0.653517 0 0.697926 0 0.759054C0 0.820152 0.0166606 0.89514 0.050011 0.983928C0.383223 1.76706 0.745584 2.52234 1.13709 3.24986C1.5286 3.97738 1.86882 4.56342 2.15753 5.00745C2.44631 5.4518 2.74066 5.87118 3.04058 6.26537C3.3405 6.65971 3.53902 6.91242 3.63616 7.02344C3.73341 7.13467 3.80979 7.21783 3.86532 7.27335L4.07362 7.47325C4.20691 7.60657 4.40263 7.76623 4.66089 7.95224C4.9192 8.13836 5.20517 8.3216 5.51895 8.50224C5.83279 8.68259 6.19789 8.82976 6.61447 8.94359C7.03098 9.05753 7.43638 9.10325 7.83072 9.08119H8.78875C8.98305 9.06441 9.13025 9.00331 9.2303 8.89787L9.26345 8.85611C9.28574 8.82297 9.3066 8.77147 9.32586 8.70217C9.34535 8.63275 9.35504 8.55628 9.35504 8.47309C9.34935 8.23433 9.36752 8.01914 9.40907 7.82756C9.45059 7.63604 9.49792 7.49163 9.55085 7.39438C9.60375 7.29722 9.66345 7.21523 9.72989 7.14876C9.79647 7.08215 9.84391 7.0418 9.87175 7.02791C9.89941 7.01393 9.9215 7.00445 9.93816 6.99876C10.0714 6.95435 10.2283 6.99736 10.409 7.12799C10.5895 7.2585 10.7588 7.41965 10.9172 7.61118C11.0755 7.80287 11.2657 8.01795 11.4878 8.25671C11.71 8.49556 11.9043 8.67311 12.0709 8.78991L12.2374 8.88987C12.3487 8.95657 12.4931 9.01767 12.6708 9.0732C12.8482 9.12869 13.0037 9.14258 13.1372 9.11483L15.2697 9.08157C15.4807 9.08157 15.6448 9.04664 15.7612 8.97735C15.8779 8.90793 15.9472 8.83146 15.9695 8.74827C15.9918 8.665 15.993 8.57052 15.9737 8.46489C15.954 8.35953 15.9345 8.28586 15.9151 8.24422Z"/>
    </symbol>
    <symbol id="icon-popup-key" viewBox="0 0 512 512">
        <path d="M334.974,0c-95.419,0-173.049,77.63-173.049,173.049c0,21.213,3.769,41.827,11.211,61.403L7.672,399.928
                c-2.365,2.366-3.694,5.573-3.694,8.917v90.544c0,6.965,5.646,12.611,12.611,12.611h74.616c3.341,0,6.545-1.325,8.91-3.686
                l25.145-25.107c2.37-2.366,3.701-5.577,3.701-8.925v-30.876h30.837c6.965,0,12.611-5.646,12.611-12.611v-12.36h12.361
                c6.964,0,12.611-5.646,12.611-12.611v-27.136h27.136c3.344,0,6.551-1.329,8.917-3.694l40.121-40.121
                c19.579,7.449,40.196,11.223,61.417,11.223c95.419,0,173.049-77.63,173.049-173.049C508.022,77.63,430.393,0,334.974,0z
                M334.974,320.874c-20.642,0-40.606-4.169-59.339-12.393c-4.844-2.126-10.299-0.956-13.871,2.525
                c-0.039,0.037-0.077,0.067-0.115,0.106l-42.354,42.354h-34.523c-6.965,0-12.611,5.646-12.611,12.611v27.136H159.8
                c-6.964,0-12.611,5.646-12.611,12.611v12.36h-30.838c-6.964,0-12.611,5.646-12.611,12.611v38.257l-17.753,17.725H29.202v-17.821
                l154.141-154.14c4.433-4.433,4.433-11.619,0-16.051s-11.617-4.434-16.053,0L29.202,436.854V414.07l167.696-167.708
                c0.038-0.038,0.067-0.073,0.102-0.11c3.482-3.569,4.656-9.024,2.53-13.872c-8.216-18.732-12.38-38.695-12.38-59.33
                c0-81.512,66.315-147.827,147.827-147.827S482.802,91.537,482.802,173.05C482.8,254.56,416.484,320.874,334.974,320.874z"/>
        <path d="M387.638,73.144c-26.047,0-47.237,21.19-47.237,47.237s21.19,47.237,47.237,47.237s47.237-21.19,47.237-47.237
                S413.686,73.144,387.638,73.144z M387.638,142.396c-12.139,0-22.015-9.876-22.015-22.015s9.876-22.015,22.015-22.015
                s22.015,9.876,22.015,22.015S399.777,142.396,387.638,142.396z"/>
    </symbol>
    <symbol id="icon-pies-logo" viewBox="0 0 851 88">
        <path d="M0.0198812 4.47918V55.5512C0.00379382 55.9211 0.0721519 56.2899 0.219772 56.6295C0.367392 56.9691 0.590398 57.2706 0.871881 57.5112C1.4326 57.995 2.15245 58.2543 2.89288 58.2392H9.91588C10.2794 58.2891 10.6495 58.2537 10.9969 58.1358C11.3444 58.0179 11.6596 57.8208 11.9177 57.56C12.1757 57.2992 12.3696 56.9819 12.4838 56.6332C12.5981 56.2846 12.6296 55.9141 12.5759 55.5512V9.41118C12.5759 7.69518 13.2495 6.83651 14.5969 6.83518H30.5569C32.1882 6.83518 33.0039 7.69385 33.0039 9.41118V55.5552C32.9811 55.9117 33.034 56.269 33.1592 56.6036C33.2844 56.9382 33.4791 57.2425 33.7304 57.4964C33.9817 57.7503 34.2839 57.9482 34.6171 58.0769C34.9504 58.2056 35.3071 58.2623 35.6639 58.2432H42.7929C43.137 58.26 43.4809 58.2038 43.8018 58.0784C44.1227 57.9529 44.4134 57.761 44.6549 57.5152C45.1355 56.979 45.3843 56.2743 45.3469 55.5552V4.47918C45.3768 3.74423 45.1299 3.02482 44.6549 2.46318C44.4218 2.20299 44.1339 1.99772 43.8119 1.86215C43.4899 1.72658 43.1419 1.66409 42.7929 1.67918H2.89288C2.14291 1.66786 1.41802 1.94907 0.871881 2.46318C0.592604 2.71767 0.371817 3.02968 0.224731 3.37772C0.0776454 3.72575 0.00775704 4.10153 0.0198812 4.47918V4.47918ZM90.4549 47.7112C90.0235 47.7142 89.6079 47.8733 89.2849 48.1592C87.9053 49.7345 86.1738 50.9623 84.2309 51.7432C83.0122 52.1938 81.6726 52.1938 80.4539 51.7432C75.0619 49.5792 70.6995 44.2792 67.3669 35.8432C67.2237 35.3684 67.2237 34.862 67.3669 34.3872C67.5013 33.9497 67.7597 33.5607 68.1109 33.2672H68.2199C69.0568 32.7506 70.0052 32.442 70.9859 32.3672C71.9419 32.3003 72.8981 32.4938 73.7529 32.9272C74.9444 33.4503 76.0829 34.0865 77.1529 34.8272C78.0387 35.483 79.0549 35.9413 80.1329 36.1712C80.6655 36.2804 81.2151 36.2771 81.7464 36.1613C82.2777 36.0456 82.7789 35.8201 83.2179 35.4992C83.967 35.0364 84.6476 34.4709 85.2399 33.8192C86.0199 33.0738 86.6582 32.4405 87.1549 31.9192C87.5809 31.3985 88.0419 30.8012 88.5379 30.1272C88.8017 29.8157 88.9353 29.4146 88.9109 29.0072C88.8668 28.6117 88.7397 28.2301 88.5379 27.8872L87.8999 27.2152C87.6607 26.945 87.3479 26.7504 86.9999 26.6552C86.6963 26.5812 86.3761 26.6211 86.0999 26.7672C85.6264 26.9849 85.1249 27.1357 84.6099 27.2152C84.1796 27.2139 83.7574 27.098 83.3869 26.8792C82.9955 26.6552 82.5875 26.4312 82.1629 26.2072C82.0142 26.0552 81.832 25.9401 81.6309 25.8712C79.9179 24.769 77.9228 24.1856 75.8859 24.1912C74.4659 24.2672 72.5859 25.0512 70.2459 26.5432C69.2519 27.1432 68.3652 27.7032 67.5859 28.2232C67.3956 28.3986 67.1576 28.5135 66.9019 28.5534C66.6463 28.5933 66.3845 28.5563 66.1499 28.4472C65.9145 28.3258 65.7106 28.1513 65.5544 27.9375C65.3982 27.7236 65.2939 27.4763 65.2499 27.2152C64.3265 20.0472 65.2132 14.3352 67.9099 10.0792C68.5228 9.12932 69.4425 8.41788 70.5159 8.06318C71.6022 7.69114 72.7815 7.69114 73.8679 8.06318C76.8118 9.27536 79.3818 11.2463 81.3159 13.7752C81.4372 13.9496 81.5954 14.0953 81.7793 14.2017C81.9631 14.3082 82.1682 14.3729 82.3799 14.3912C82.5914 14.4101 82.8045 14.385 83.0059 14.3176C83.2072 14.2501 83.3925 14.1417 83.5499 13.9992C85.9018 11.9033 88.6026 10.2354 91.5299 9.07118C91.8186 8.95793 92.0706 8.7674 92.2583 8.52046C92.446 8.27352 92.5621 7.9797 92.5939 7.67118C92.6383 7.38478 92.6021 7.09167 92.4894 6.82464C92.3768 6.55762 92.192 6.3272 91.9559 6.15918C87.9835 3.534 83.5941 1.60254 78.9749 0.447179C77.7514 0.149607 76.4744 0.149607 75.2509 0.447179C68.8858 2.22589 63.2564 5.99336 59.1849 11.1992C54.9711 16.5471 52.6842 23.1599 52.6938 29.9684C52.7034 36.7769 55.009 43.3832 59.2379 48.7192C63.3494 53.9318 69.0444 57.6662 75.4639 59.3592C76.6115 59.6558 77.8107 59.694 78.9749 59.4712C84.2484 58.4941 89.0222 55.7244 92.4879 51.6312C92.7632 51.3011 92.9139 50.885 92.9139 50.4552C92.9139 50.0254 92.7632 49.6092 92.4879 49.2792L91.6369 48.2712C91.4904 48.0998 91.3094 47.9614 91.1057 47.8649C90.902 47.7684 90.6802 47.716 90.4549 47.7112V47.7112ZM148.82 2.63118C148.647 2.31497 148.394 2.05005 148.085 1.86321C147.777 1.67637 147.425 1.57425 147.065 1.56718H97.6899C97.3418 1.5672 97.0011 1.66758 96.7087 1.8563C96.4162 2.04501 96.1843 2.31405 96.0409 2.63118C95.8473 2.98189 95.7414 3.3742 95.7322 3.77468C95.723 4.17515 95.8107 4.57192 95.9879 4.93118C96.8185 6.62159 97.5468 8.36039 98.1689 10.1382C98.8164 11.9557 99.3668 13.8063 99.8179 15.6822C99.8225 15.9715 99.9249 16.2508 100.108 16.4745C100.292 16.6983 100.546 16.8532 100.829 16.9142C101.079 16.956 101.335 16.9124 101.557 16.7905C101.779 16.6685 101.953 16.4754 102.052 16.2422L103.752 13.5542C104.853 11.5702 106.495 9.94018 108.487 8.85418C110.433 7.81032 112.609 7.27121 114.817 7.28618C115.173 7.28741 115.522 7.3841 115.828 7.56618C115.967 7.63147 116.086 7.73405 116.17 7.86255C116.255 7.99104 116.302 8.14044 116.307 8.29418V55.4462C116.284 56.2062 116.55 56.9466 117.052 57.5182C117.272 57.7835 117.549 57.9965 117.862 58.1418C118.175 58.2871 118.516 58.361 118.861 58.3582H125.989C126.358 58.3654 126.724 58.2942 127.063 58.1494C127.403 58.0046 127.708 57.7895 127.958 57.5182C128.221 57.2426 128.428 56.9177 128.565 56.5621C128.702 56.2065 128.768 55.8272 128.758 55.4462V8.28618C128.749 8.13689 128.774 7.98746 128.832 7.84961C128.89 7.71175 128.979 7.58921 129.093 7.49158C129.206 7.39394 129.34 7.32387 129.485 7.28685C129.63 7.24983 129.782 7.24686 129.928 7.27818C132.152 7.26791 134.345 7.80648 136.312 8.84618C138.326 9.92082 139.988 11.5524 141.1 13.5462L142.8 16.2342C142.919 16.4627 143.105 16.6495 143.333 16.7696C143.561 16.8897 143.82 16.9373 144.076 16.9062C144.349 16.8352 144.591 16.6759 144.764 16.4531C144.938 16.2303 145.032 15.9564 145.034 15.6742C145.484 13.798 146.034 11.9474 146.683 10.1302C147.308 8.33715 148.073 6.5961 148.971 4.92318C149.149 4.56142 149.228 4.15925 149.202 3.75698C149.175 3.35471 149.044 2.96647 148.82 2.63118V2.63118ZM173.345 0.671179C170.39 1.44691 167.61 2.77718 165.152 4.59118C162.717 6.40821 160.627 8.64613 158.981 11.1992C157.243 13.8932 155.933 16.8402 155.098 19.9352C154.196 23.2568 153.749 26.6854 153.768 30.1272C153.783 33.8148 154.013 37.4985 154.459 41.1592C154.92 45.0792 155.364 49.3352 155.789 53.9272C156.214 58.5192 156.516 63.4858 156.694 68.8272C156.852 74.6414 156.621 80.4598 156.002 86.2432C155.925 86.3756 155.894 86.5293 155.913 86.681C155.933 86.8327 156.001 86.974 156.108 87.0832C156.364 87.2937 156.651 87.4624 156.96 87.5832C158.171 87.8812 159.44 87.8425 160.63 87.4712C161.901 87.0822 163.078 86.4354 164.088 85.5712C165.174 84.6479 166.076 83.5284 166.748 82.2712C167.465 80.9367 167.899 79.4689 168.025 77.9592C168.166 75.7932 168.22 73.8892 168.185 72.2472C168.15 70.6052 168.079 69.0185 167.972 67.4872C167.866 65.9538 167.742 64.4045 167.6 62.8392C167.458 61.2738 167.351 59.5192 167.28 57.5752C167.202 57.3882 167.191 57.1799 167.249 56.9858C167.307 56.7917 167.431 56.6239 167.6 56.5112C167.752 56.3848 167.946 56.3203 168.143 56.3307C168.34 56.341 168.526 56.4255 168.664 56.5672C169.345 57.0389 170.077 57.4333 170.845 57.7432C171.553 58.0222 172.246 58.34 172.92 58.6952C174.428 59.3411 176.081 59.573 177.708 59.3672C180.783 58.454 183.691 57.0507 186.32 55.2112C191.718 51.4833 195.81 46.1558 198.02 39.9792C199.158 36.8184 199.733 33.4826 199.72 30.1232C199.739 26.6491 199.145 23.1989 197.965 19.9312C196.831 16.789 195.215 13.8419 193.177 11.1952C191.196 8.62031 188.805 6.38799 186.101 4.58718C183.46 2.821 180.549 1.49698 177.483 0.667179C176.109 0.442271 174.707 0.442271 173.333 0.667179L173.345 0.671179ZM165.525 16.4632C166.037 14.3283 166.878 12.2864 168.02 10.4112C168.484 9.65266 169.02 8.94011 169.62 8.28318C170.116 7.76251 170.932 7.72518 172.067 8.17118C175.231 9.52754 177.97 11.714 179.994 14.4992C182.631 17.9122 184.566 21.814 185.687 25.9792C186.51 28.2241 186.959 30.5888 187.017 32.9792C187.061 35.1635 186.847 37.3453 186.378 39.4792C185.568 43.1261 184.109 46.5975 182.069 49.7272C181.17 51.3536 179.87 52.7225 178.292 53.7032C177.786 54.0319 177.219 54.2558 176.625 54.3616C176.031 54.4674 175.422 54.453 174.834 54.3192C173.468 53.6873 172.252 52.7709 171.269 51.6312C170.376 50.606 169.608 49.4781 168.982 48.2712C168.413 47.1512 167.879 46.0685 167.382 45.0232C166.826 43.8153 166.381 42.5595 166.052 41.2712C165.616 39.5775 165.296 37.8562 165.094 36.1192C164.845 34.1418 164.685 31.6592 164.615 28.6712C164.403 23.3705 164.705 19.3008 165.52 16.4622L165.525 16.4632ZM246.974 48.5512C242.916 53.712 237.329 57.4572 231.014 59.2512C229.754 59.5492 228.443 59.5492 227.183 59.2512C220.839 57.4865 215.228 53.7367 211.17 48.5512C207 43.2511 204.733 36.703 204.733 29.9592C204.733 23.2153 207 16.6673 211.17 11.3672C215.228 6.18255 220.84 2.43297 227.183 0.667179C228.433 0.294309 229.764 0.294309 231.014 0.667179C237.329 2.46223 242.915 6.20725 246.974 11.3672C251.175 16.6534 253.462 23.2071 253.461 29.9596C253.46 36.7121 251.172 43.2651 246.969 48.5502L246.974 48.5512ZM222.448 8.17518C221.375 8.52989 220.455 9.24132 219.842 10.1912C216.365 16.0152 215.974 23.8552 218.671 33.7112C221.933 43.2698 226.508 49.2432 232.397 51.6312C233.445 52.0778 234.621 52.1177 235.697 51.7432C236.794 51.3459 237.729 50.5979 238.357 49.6152C241.832 43.8672 242.222 36.0272 239.528 26.0952C236.261 16.5392 231.686 10.5658 225.802 8.17518C224.713 7.80122 223.531 7.80086 222.443 8.17418L222.448 8.17518ZM285.596 27.3272C285.434 27.2269 285.301 27.087 285.208 26.9208C285.116 26.7545 285.067 26.5674 285.067 26.3772C285.067 26.1869 285.116 25.9998 285.208 25.8336C285.301 25.6674 285.434 25.5275 285.596 25.4272L290.171 23.0752C294.923 20.5378 297.672 17.6258 298.417 14.3392C298.805 12.8112 298.815 11.2115 298.444 9.67916C298.073 8.14684 297.333 6.72837 296.289 5.54718C295.185 4.25936 293.801 3.24151 292.242 2.57172C290.684 1.90192 288.993 1.59797 287.299 1.68318H263.359C262.997 1.67244 262.638 1.74224 262.306 1.88751C261.975 2.03279 261.68 2.24992 261.443 2.52318C260.956 3.05884 260.69 3.75924 260.699 4.48318V55.5552C260.69 56.2792 260.955 56.9797 261.443 57.5152C261.68 57.7884 261.975 58.0056 262.306 58.1508C262.638 58.2961 262.997 58.3659 263.359 58.3552H289.32C293.433 58.3552 296.607 57.4032 298.843 55.4992C300.971 53.7756 302.423 51.3562 302.943 48.6672C303.442 46.0547 303.184 43.3538 302.199 40.8832C301.247 38.3939 299.435 36.3278 297.091 35.0592L285.596 27.3272ZM273.679 7.72718C273.857 7.54155 274.072 7.39569 274.311 7.29918C274.55 7.20267 274.806 7.15768 275.063 7.16718H280.808C281.804 7.08192 282.803 7.30474 283.669 7.80551C284.535 8.30629 285.226 9.06085 285.649 9.96718C286.089 10.9624 286.321 12.0373 286.331 13.1256C286.34 14.2139 286.126 15.2926 285.703 16.2952C284.851 18.6472 282.971 20.6445 280.063 22.2872L275.063 24.9752C274.866 25.086 274.642 25.1395 274.416 25.1296C274.191 25.1197 273.972 25.0468 273.786 24.9192C273.582 24.8006 273.414 24.6282 273.301 24.4208C273.189 24.2134 273.135 23.9789 273.147 23.7432V9.07018C273.137 8.57004 273.327 8.08662 273.674 7.72618L273.679 7.72718ZM275.063 52.9752C274.806 52.9854 274.549 52.9407 274.311 52.8442C274.072 52.7476 273.857 52.6014 273.679 52.4152C273.499 52.2194 273.359 51.9901 273.268 51.7402C273.176 51.4904 273.135 51.2249 273.147 50.9592V35.5022C273.134 34.4976 273.395 33.5085 273.901 32.6405C274.407 31.7725 275.14 31.0583 276.02 30.5742L277.084 29.9022C277.567 29.6444 278.113 29.5286 278.659 29.5682C279.205 29.6079 279.729 29.8013 280.17 30.1262L284.426 32.9262C287.831 35.3175 289.781 38.0615 290.278 41.1582C290.547 42.5881 290.516 44.0584 290.186 45.4756C289.856 46.8927 289.235 48.2259 288.363 49.3902C287.48 50.5724 286.319 51.5181 284.982 52.1434C283.646 52.7686 282.175 53.054 280.702 52.9742H275.063V52.9752ZM346.137 47.1512C345.914 47.1577 345.694 47.2109 345.493 47.3073C345.291 47.4037 345.112 47.5413 344.967 47.7112C343.599 49.2861 341.863 50.4981 339.913 51.2392C338.727 51.6509 337.44 51.6705 336.242 51.2952C330.354 48.9072 325.779 42.8965 322.517 33.2632C319.75 23.4072 320.14 15.5672 323.687 9.74318C324.3 8.79303 325.22 8.08154 326.294 7.72718C327.38 7.35514 328.559 7.35514 329.645 7.72718C332.589 8.93899 335.159 10.91 337.093 13.4392C337.207 13.6088 337.356 13.7517 337.531 13.858C337.705 13.9643 337.901 14.0316 338.104 14.0552C338.307 14.0709 338.511 14.0442 338.704 13.9767C338.896 13.9092 339.072 13.8024 339.221 13.6632C341.573 11.5673 344.274 9.89939 347.201 8.73518C347.484 8.62888 347.732 8.44761 347.919 8.21083C348.107 7.97405 348.226 7.6907 348.265 7.39118C348.295 7.08692 348.241 6.78029 348.11 6.50409C347.979 6.2279 347.775 5.99253 347.521 5.82318C343.616 3.24069 339.298 1.3466 334.753 0.223179C333.529 -0.074393 332.252 -0.074393 331.029 0.223179C324.713 2.01672 319.127 5.76203 315.069 10.9232C310.857 16.2181 308.568 22.7866 308.578 29.5525C308.588 36.3183 310.895 42.8803 315.122 48.1632C319.206 53.3566 324.86 57.0892 331.241 58.8032C332.389 59.102 333.589 59.1403 334.753 58.9152C339.99 57.9195 344.724 55.151 348.159 51.0752C348.428 50.7419 348.579 50.3278 348.585 49.8992C348.589 49.5021 348.436 49.1195 348.159 48.8352L347.201 47.7152C347.082 47.541 346.923 47.3984 346.737 47.2999C346.55 47.2014 346.343 47.15 346.132 47.1502L346.137 47.1512ZM388.484 58.4632H395.932C396.299 58.4714 396.663 58.3944 396.996 58.2382C397.328 58.0821 397.62 57.851 397.848 57.5632C398.315 57.0391 398.579 56.3651 398.592 55.6632C398.46 51.5775 397.78 47.5281 396.571 43.6232C395.602 40.473 394.089 37.5166 392.102 34.8872C390.338 32.6069 388.153 30.6868 385.665 29.2312C383.232 27.8198 380.593 26.7993 377.844 26.2072C377.69 26.157 377.551 26.0692 377.44 25.9519C377.328 25.8346 377.248 25.6914 377.206 25.5352C377.133 25.2321 377.171 24.9131 377.312 24.6352C378.354 22.3794 379.716 20.2858 381.356 18.4192C382.511 17.1026 383.878 15.9874 385.399 15.1192C386.501 14.4924 387.748 14.1642 389.016 14.1672C390.039 14.1825 391.05 14.3916 391.996 14.7832C392.249 14.8558 392.515 14.8684 392.774 14.8197C393.032 14.7711 393.276 14.6627 393.485 14.5032C393.723 14.3489 393.923 14.1429 394.071 13.9005C394.218 13.6581 394.309 13.3855 394.336 13.1032C395.034 10.2211 395.996 7.40925 397.209 4.70318C397.348 4.42653 397.425 4.12268 397.434 3.81306C397.443 3.50344 397.385 3.19558 397.262 2.91118C397.164 2.63951 397.001 2.39569 396.788 2.20063C396.575 2.00556 396.318 1.86506 396.039 1.79118C394.295 1.28672 392.476 1.09708 390.666 1.23118C388.701 1.52185 386.877 2.42301 385.452 3.80718C383.147 5.97501 381.143 8.44197 379.494 11.1422C377.329 14.4662 374.793 18.9662 371.886 24.6422C371.769 24.849 371.599 25.0206 371.393 25.1388C371.187 25.2571 370.953 25.3177 370.716 25.3142C370.536 25.3043 370.359 25.2586 370.197 25.1797C370.035 25.1008 369.89 24.9903 369.771 24.8547C369.652 24.7191 369.562 24.5611 369.505 24.3899C369.448 24.2188 369.425 24.038 369.439 23.8582V4.70318C369.46 3.94335 369.194 3.20343 368.694 2.63118C368.457 2.35827 368.162 2.14137 367.831 1.99612C367.5 1.85087 367.14 1.78087 366.779 1.79118H359.544C359.182 1.78044 358.823 1.85024 358.491 1.99551C358.16 2.14079 357.865 2.35792 357.628 2.63118C357.127 3.20307 356.861 3.94333 356.884 4.70318V55.6632C356.869 56.0317 356.927 56.3994 357.055 56.7454C357.182 57.0914 357.377 57.4087 357.628 57.6792C357.873 57.9382 358.171 58.142 358.502 58.2772C358.832 58.4124 359.187 58.4758 359.544 58.4632H366.779C367.135 58.4754 367.49 58.4118 367.82 58.2766C368.151 58.1415 368.448 57.9379 368.694 57.6792C369.2 57.1325 369.468 56.4074 369.439 55.6632V32.5902C369.432 32.3121 369.48 32.0353 369.581 31.7758C369.681 31.5164 369.832 31.2793 370.024 31.0782C370.219 30.8761 370.467 30.7324 370.74 30.6632C371.012 30.5939 371.299 30.6019 371.567 30.6862C373.36 30.8757 375.09 31.4489 376.642 32.3669C378.193 33.2848 379.529 34.5261 380.558 36.0062C382.166 38.3057 383.371 40.8622 384.122 43.5662C385.225 47.5427 385.796 51.6477 385.822 55.7742C385.815 56.1244 385.877 56.4725 386.005 56.7986C386.132 57.1247 386.324 57.4222 386.567 57.6742C386.812 57.9331 387.11 58.1369 387.44 58.2721C387.77 58.4072 388.125 58.4707 388.482 58.4582L388.484 58.4632ZM415.296 1.68018C416.003 1.69065 416.678 1.97809 417.175 2.48072C417.672 2.98335 417.953 3.66105 417.956 4.36818V24.7512C417.942 24.9813 417.989 25.211 418.091 25.4174C418.194 25.6238 418.349 25.7996 418.541 25.9272C418.737 26.0563 418.964 26.1298 419.198 26.1397C419.432 26.1495 419.665 26.0954 419.871 25.9832L432.107 20.0472C436.15 17.6592 438.172 14.2992 438.172 9.96718V4.36718C438.175 3.66005 438.455 2.98235 438.953 2.47972C439.45 1.97709 440.125 1.68965 440.832 1.67918H448.067C448.423 1.66745 448.778 1.73124 449.108 1.86636C449.438 2.00147 449.736 2.20486 449.982 2.46318C450.472 2.97275 450.74 3.65614 450.727 4.36318V55.6632C450.735 56.3872 450.469 57.0876 449.982 57.6232C449.745 57.8961 449.45 58.1131 449.119 58.2583C448.788 58.4036 448.428 58.4736 448.067 58.4632H440.832C440.48 58.4627 440.132 58.3876 439.811 58.2428C439.49 58.098 439.203 57.8868 438.97 57.6232C438.714 57.3654 438.511 57.0595 438.374 56.7231C438.237 56.3867 438.167 56.0265 438.17 55.6632V26.0942C438.17 25.8742 438.117 25.6574 438.015 25.4624C437.913 25.2673 437.766 25.0998 437.585 24.9742C437.418 24.8309 437.21 24.7432 436.991 24.7231C436.771 24.703 436.551 24.7516 436.361 24.8622L424.232 30.5742C420.045 32.9655 417.952 36.3255 417.954 40.6542V55.6622C417.956 56.0255 417.887 56.3857 417.75 56.7221C417.612 57.0585 417.41 57.3644 417.154 57.6222C416.92 57.8857 416.634 58.0968 416.313 58.2416C415.992 58.3863 415.644 58.4615 415.292 58.4622H408.057C407.705 58.4617 407.357 58.3866 407.036 58.2418C406.715 58.097 406.428 57.8858 406.195 57.6222C405.939 57.3644 405.736 57.0585 405.599 56.7221C405.462 56.3857 405.392 56.0255 405.395 55.6622V4.36218C405.398 3.65505 405.678 2.97735 406.176 2.47472C406.673 1.97209 407.348 1.68465 408.055 1.67418H415.29L415.296 1.68018ZM495.52 47.7112C495.088 47.7126 494.672 47.872 494.35 48.1592C492.969 49.7353 491.235 50.9633 489.29 51.7432C488.07 52.1937 486.73 52.1937 485.51 51.7432C480.12 49.5792 475.76 44.2792 472.43 35.8432C472.287 35.3885 472.281 34.902 472.413 34.444C472.544 33.986 472.808 33.5768 473.17 33.2672H473.28C474.118 32.7505 475.068 32.4419 476.05 32.3672C477.004 32.3 477.958 32.4936 478.81 32.9272C480.004 33.4505 481.146 34.0867 482.22 34.8272C483.105 35.4842 484.121 35.9427 485.2 36.1712C485.732 36.2806 486.281 36.2774 486.811 36.1616C487.342 36.0459 487.842 35.8202 488.28 35.4992C489.029 35.0365 489.709 34.471 490.3 33.8192C491.08 33.0738 491.72 32.4405 492.22 31.9192C492.64 31.3985 493.1 30.8012 493.6 30.1272C493.864 29.816 493.996 29.4144 493.97 29.0072C493.929 28.6115 493.803 28.2294 493.6 27.8872L492.96 27.2152C492.722 26.9437 492.409 26.7488 492.06 26.6552C491.753 26.5808 491.43 26.6206 491.15 26.7672C490.677 26.9864 490.175 27.1372 489.66 27.2152C489.231 27.2131 488.81 27.0972 488.44 26.8792C488.05 26.6552 487.64 26.4312 487.22 26.2072C487.07 26.0573 486.889 25.9426 486.69 25.8712C484.975 24.7692 482.978 24.1858 480.94 24.1912C479.52 24.2672 477.64 25.0512 475.3 26.5432C474.31 27.1432 473.42 27.7022 472.64 28.2232C472.449 28.3984 472.21 28.5132 471.954 28.5531C471.698 28.593 471.435 28.5561 471.2 28.4472C470.964 28.3261 470.76 28.1517 470.604 27.9378C470.448 27.7239 470.344 27.4765 470.3 27.2152C469.38 20.0472 470.267 14.3352 472.96 10.0792C473.575 9.12954 474.496 8.41831 475.57 8.06318C476.656 7.69114 477.834 7.69114 478.92 8.06318C481.864 9.27576 484.435 11.2466 486.37 13.7752C486.49 13.9501 486.647 14.0962 486.83 14.2027C487.014 14.3093 487.219 14.3737 487.43 14.3912C487.641 14.41 487.855 14.3849 488.056 14.3175C488.257 14.25 488.442 14.1417 488.6 13.9992C490.951 11.9028 493.652 10.2349 496.58 9.07118C496.868 8.9581 497.12 8.76753 497.307 8.52049C497.494 8.27344 497.609 7.97953 497.64 7.67118C497.685 7.38556 497.649 7.09316 497.538 6.82631C497.427 6.55946 497.244 6.32857 497.01 6.15918C493.036 3.53649 488.648 1.60521 484.03 0.447179C482.804 0.14945 481.525 0.14945 480.3 0.447179C473.935 2.22666 468.307 5.994 464.235 11.1992C460.022 16.5474 457.735 23.1601 457.745 29.9684C457.755 36.7767 460.06 43.3829 464.288 48.7192C468.399 53.9306 474.092 57.6648 480.51 59.3592C481.661 59.6558 482.863 59.694 484.03 59.4712C489.302 58.4936 494.075 55.7239 497.54 51.6312C497.812 51.2995 497.96 50.8839 497.96 50.4552C497.96 50.0264 497.812 49.6109 497.54 49.2792L496.69 48.2712C496.544 48.102 496.365 47.9649 496.164 47.8685C495.962 47.7721 495.743 47.7185 495.52 47.7112V47.7112ZM541.05 4.47918V55.5512C541.035 55.9217 541.105 56.2908 541.254 56.6304C541.403 56.97 541.627 57.2712 541.91 57.5112C542.47 57.9961 543.19 58.2556 543.93 58.2392H550.95C551.313 58.2889 551.683 58.2533 552.031 58.1353C552.378 58.0174 552.693 57.8202 552.951 57.5595C553.209 57.2988 553.403 56.9816 553.517 56.633C553.632 56.2845 553.663 55.9141 553.61 55.5512V9.41118C553.61 7.69518 554.28 6.83518 555.63 6.83518H571.59C573.22 6.83518 574.04 7.69518 574.04 9.41118V55.5552C574.016 55.912 574.068 56.2698 574.193 56.6049C574.318 56.94 574.512 57.2447 574.764 57.4989C575.015 57.7531 575.318 57.9509 575.652 58.0792C575.986 58.2075 576.343 58.2634 576.7 58.2432H583.83C584.174 58.2602 584.517 58.2042 584.838 58.0787C585.159 57.9532 585.449 57.7611 585.69 57.5152C586.17 56.9785 586.418 56.274 586.38 55.5552V4.47918C586.41 3.74455 586.164 3.02531 585.69 2.46318C585.457 2.20286 585.17 1.99749 584.848 1.8619C584.526 1.72631 584.179 1.6639 583.83 1.67918H543.93C543.18 1.66674 542.455 1.94813 541.91 2.46318C541.629 2.71706 541.407 3.02877 541.259 3.37681C541.11 3.72485 541.039 4.10095 541.05 4.47918V4.47918ZM605.32 1.67918C606.027 1.68965 606.702 1.97709 607.199 2.47972C607.696 2.98235 607.977 3.66005 607.98 4.36718V24.7502C607.965 24.9798 608.011 25.2093 608.113 25.4157C608.214 25.6221 608.369 25.7981 608.56 25.9262C608.756 26.0551 608.983 26.1285 609.217 26.1383C609.451 26.1482 609.684 26.0942 609.89 25.9822L622.13 20.0462C626.17 17.6582 628.193 14.2982 628.2 9.96618V4.36618C628.194 4.01216 628.261 3.66067 628.397 3.33373C628.532 3.00679 628.734 2.71144 628.99 2.46618C629.233 2.21731 629.524 2.01973 629.846 1.88508C630.167 1.75043 630.512 1.68144 630.86 1.68218H638.09C638.447 1.67075 638.803 1.73466 639.133 1.86974C639.464 2.00481 639.763 2.20804 640.01 2.46618C640.496 2.9778 640.762 3.66026 640.75 4.36618V55.6662C640.757 56.3891 640.493 57.0886 640.01 57.6262C639.771 57.899 639.476 58.1158 639.144 58.2611C638.812 58.4063 638.452 58.4763 638.09 58.4662H630.86C630.507 58.465 630.158 58.3896 629.836 58.2449C629.513 58.1002 629.225 57.8894 628.99 57.6262C628.736 57.3675 628.535 57.0613 628.399 56.7249C628.264 56.3886 628.196 56.0288 628.2 55.6662V26.0942C628.199 25.8738 628.145 25.6568 628.042 25.4618C627.94 25.2667 627.791 25.0995 627.61 24.9742C627.443 24.8311 627.236 24.7435 627.018 24.7234C626.799 24.7033 626.58 24.7518 626.39 24.8622L614.26 30.5742C610.07 32.9655 607.977 36.3255 607.98 40.6542V55.6622C607.982 56.0254 607.912 56.3855 607.775 56.7218C607.638 57.0581 607.435 57.3641 607.18 57.6222C606.947 57.8859 606.661 58.0972 606.34 58.242C606.019 58.3868 605.672 58.4619 605.32 58.4622H598.08C597.728 58.4619 597.38 58.3868 597.06 58.242C596.739 58.0972 596.453 57.8859 596.22 57.6222C595.964 57.3641 595.762 57.0581 595.625 56.7218C595.487 56.3855 595.418 56.0254 595.42 55.6622V4.36218C595.423 3.65505 595.703 2.97735 596.201 2.47472C596.698 1.97209 597.373 1.68465 598.08 1.67418H605.32V1.67918ZM669.16 0.671179C666.206 1.44694 663.427 2.77723 660.97 4.59118C658.533 6.40524 656.443 8.64369 654.8 11.1992C653.058 13.892 651.746 16.8392 650.91 19.9352C650.007 23.2566 649.56 26.6853 649.58 30.1272C649.595 33.8148 649.826 37.4984 650.27 41.1592C650.73 45.0792 651.173 49.3352 651.6 53.9272C652.027 58.5192 652.33 63.4858 652.51 68.8272C652.662 74.6414 652.431 80.4592 651.82 86.2432C651.741 86.3745 651.708 86.5282 651.727 86.6802C651.745 86.8322 651.813 86.9739 651.92 87.0832C652.177 87.2909 652.463 87.4594 652.77 87.5832C653.98 87.8813 655.25 87.8426 656.44 87.4712C657.712 87.0829 658.89 86.4361 659.9 85.5712C660.988 84.6496 661.89 83.5297 662.56 82.2712C663.28 80.9376 663.715 79.4694 663.84 77.9592C663.98 75.7932 664.03 73.8892 664 72.2472C663.97 70.6052 663.89 69.0172 663.79 67.4872C663.69 65.9572 663.56 64.4072 663.41 62.8392C663.26 61.2712 663.16 59.5162 663.09 57.5752C663.014 57.388 663.004 57.1803 663.062 56.9867C663.12 56.7931 663.243 56.6253 663.41 56.5112C663.563 56.3848 663.758 56.3204 663.956 56.3308C664.154 56.3412 664.341 56.4255 664.48 56.5672C665.16 57.0396 665.891 57.4341 666.66 57.7432C667.367 58.0229 668.058 58.3407 668.73 58.6952C670.239 59.3406 671.892 59.5726 673.52 59.3672C676.597 58.458 679.508 57.0587 682.14 55.2232C687.538 51.4956 691.63 46.168 693.84 39.9912C694.984 36.8317 695.563 33.4954 695.55 30.1352C695.567 26.6608 694.971 23.2106 693.79 19.9432C692.655 16.8009 691.039 13.8538 689 11.2072C687.02 8.63316 684.632 6.40093 681.93 4.59918C679.288 2.83352 676.377 1.50955 673.31 0.679179C671.936 0.454289 670.534 0.454289 669.16 0.679179V0.671179ZM661.34 16.4632C661.852 14.329 662.696 12.2882 663.84 10.4152C664.304 9.65663 664.84 8.94407 665.44 8.28718C665.93 7.76618 666.75 7.72718 667.88 8.17518C671.045 9.53108 673.785 11.7175 675.81 14.5032C678.446 17.9164 680.38 21.8182 681.5 25.9832C682.326 28.2274 682.775 30.5925 682.83 32.9832C682.876 35.1676 682.662 37.3498 682.19 39.4832C681.761 41.4441 681.138 43.3575 680.33 45.1952C679.648 46.7763 678.828 48.2942 677.88 49.7312C676.986 51.3583 675.687 52.7277 674.11 53.7072C673.603 54.0356 673.036 54.2593 672.442 54.3651C671.848 54.4709 671.238 54.4567 670.65 54.3232C669.282 53.6909 668.065 52.7746 667.08 51.6352C666.189 50.6099 665.423 49.4819 664.8 48.2752C664.23 47.1552 663.7 46.0752 663.2 45.0272C662.643 43.8196 662.198 42.5637 661.87 41.2752C661.435 39.5813 661.114 37.8601 660.91 36.1232C660.66 34.1458 660.5 31.6632 660.43 28.6752C660.223 23.3718 660.527 19.3008 661.34 16.4622V16.4632ZM742.79 48.5512C738.731 53.7112 733.145 57.4562 726.83 59.2512C725.571 59.5492 724.259 59.5492 723 59.2512C716.655 57.4859 711.041 53.7364 706.98 48.5512C702.814 43.2492 700.55 36.7018 700.55 29.9592C700.55 23.2165 702.814 16.6692 706.98 11.3672C711.042 6.18288 716.655 2.43356 723 0.667179C724.249 0.294508 725.58 0.294508 726.83 0.667179C733.144 2.46323 738.73 6.20806 742.79 11.3672C746.992 16.6528 749.28 23.2062 749.28 29.9587C749.28 36.7112 746.992 43.2645 742.79 48.5502V48.5512ZM718.26 8.17518C717.187 8.52789 716.269 9.23995 715.66 10.1912C712.18 16.0152 711.79 23.8552 714.49 33.7112C717.75 43.2698 722.323 49.2432 728.21 51.6312C729.258 52.0772 730.434 52.1172 731.51 51.7432C732.606 51.3445 733.54 50.5968 734.17 49.6152C737.64 43.8672 738.03 36.0272 735.34 26.0952C732.08 16.5392 727.503 10.5658 721.61 8.17518C720.524 7.80282 719.346 7.80246 718.26 8.17418V8.17518ZM756.51 4.36718V55.5512C756.495 55.9201 756.554 56.2883 756.683 56.6343C756.812 56.9804 757.008 57.2975 757.26 57.5672C757.504 57.8263 757.801 58.0304 758.13 58.1656C758.46 58.3008 758.814 58.3641 759.17 58.3512H766.62C766.96 58.3562 767.297 58.2889 767.609 58.1537C767.921 58.0186 768.201 57.8186 768.43 57.5672C768.932 57.0187 769.198 56.2944 769.17 55.5512V8.85118C769.165 8.34338 769.335 7.84932 769.65 7.45118C769.806 7.24946 770.008 7.08821 770.24 6.98101C770.471 6.87381 770.725 6.8238 770.98 6.83518H779.28C781.572 6.84183 783.818 7.48133 785.77 8.68318C787.828 9.91642 789.52 11.6771 790.67 13.7832L791.73 15.9112C791.858 16.1265 792.05 16.2962 792.28 16.3967C792.51 16.4971 792.765 16.5232 793.01 16.4712C793.283 16.4384 793.54 16.3251 793.749 16.1455C793.957 15.966 794.107 15.7284 794.18 15.4632C794.567 13.6252 795.119 11.8259 795.83 10.0872C796.57 8.22051 797.296 6.42851 798.01 4.71118C798.182 4.39128 798.269 4.03191 798.26 3.66854C798.251 3.30518 798.148 2.95038 797.96 2.63918C797.78 2.33608 797.521 2.08744 797.211 1.91978C796.902 1.75213 796.552 1.67173 796.2 1.68718H759.17C758.813 1.66921 758.457 1.72667 758.124 1.85578C757.792 1.98489 757.49 2.18276 757.239 2.43645C756.988 2.69014 756.793 2.99395 756.667 3.32803C756.542 3.6621 756.488 4.01893 756.51 4.37518V4.36718ZM814.61 1.67918C815.317 1.68965 815.992 1.97709 816.489 2.47972C816.986 2.98235 817.267 3.66005 817.27 4.36718V24.7502C817.255 24.9798 817.301 25.2093 817.403 25.4157C817.504 25.6221 817.659 25.7981 817.85 25.9262C818.046 26.0553 818.273 26.1288 818.507 26.1387C818.741 26.1485 818.974 26.0944 819.18 25.9822L831.42 20.0462C835.46 17.6582 837.48 14.2982 837.48 9.96618V4.36618C837.483 3.65905 837.763 2.98135 838.261 2.47872C838.758 1.97609 839.433 1.68865 840.14 1.67818H847.38C847.736 1.66582 848.09 1.72934 848.419 1.86452C848.749 1.9997 849.045 2.20343 849.29 2.46218C849.534 2.71371 849.726 3.01109 849.855 3.3372C849.984 3.6633 850.046 4.01165 850.04 4.36218V55.6622C850.048 56.3872 849.78 57.0881 849.29 57.6222C849.054 57.8956 848.76 58.113 848.43 58.2583C848.099 58.4036 847.741 58.4733 847.38 58.4622H840.14C839.788 58.4619 839.44 58.3868 839.12 58.242C838.799 58.0972 838.513 57.8859 838.28 57.6222C838.024 57.3641 837.822 57.0581 837.685 56.7218C837.547 56.3855 837.478 56.0254 837.48 55.6622V26.0942C837.481 25.8745 837.429 25.6577 837.328 25.4626C837.227 25.2675 837.08 25.0999 836.9 24.9742C836.731 24.8308 836.523 24.7431 836.303 24.723C836.082 24.703 835.861 24.7516 835.67 24.8622L823.54 30.5742C819.36 32.9655 817.27 36.3255 817.27 40.6542V55.6622C817.272 56.0254 817.202 56.3855 817.065 56.7218C816.928 57.0581 816.725 57.3641 816.47 57.6222C816.236 57.8851 815.95 58.0959 815.629 58.2406C815.309 58.3854 814.962 58.4609 814.61 58.4622H807.37C807.018 58.4619 806.67 58.3868 806.35 58.242C806.029 58.0972 805.743 57.8859 805.51 57.6222C805.254 57.3641 805.052 57.0581 804.915 56.7218C804.778 56.3855 804.708 56.0254 804.71 55.6622V4.36218C804.713 3.65505 804.993 2.97735 805.491 2.47472C805.988 1.97209 806.663 1.68465 807.37 1.67418H814.61V1.67918Z"/>
    </symbol>
    <symbol id="icon-popup-add" viewBox="0 0 448 448">
        <path d="m408 184h-136c-4.417969 0-8-3.582031-8-8v-136c0-22.089844-17.910156-40-40-40s-40 17.910156-40 40v136c0 4.417969-3.582031 8-8 8h-136c-22.089844 0-40 17.910156-40 40s17.910156 40 40 40h136c4.417969 0 8 3.582031 8 8v136c0 22.089844 17.910156 40 40 40s40-17.910156 40-40v-136c0-4.417969 3.582031-8 8-8h136c22.089844 0 40-17.910156 40-40s-17.910156-40-40-40zm0 0"/>
    </symbol>
    <symbol id="icon-pies-payment" viewBox="0 0 611.996 611.996">
        <path d="M588.63,113.193L213.812,33.871c-15.858-3.355-31.576,6.876-34.931,22.734l-7.121,45.762l432.477,91.519l7.121-45.762
                    C614.713,132.272,604.488,116.549,588.63,113.193z"/>
        <path d="M431.009,203.591c-4.378-15.766-20.854-25.085-36.615-20.714L323.24,202.63l-167.742-35.5l-18.448,87.165L21.786,286.287
                    c-15.76,4.372-25.079,20.848-20.708,36.609l64.958,234.078c4.378,15.76,20.855,25.085,36.615,20.708l372.608-103.403
                    c15.76-4.378,25.079-20.848,20.708-36.615l-11.15-40.184l41.789,8.835c15.858,3.361,31.576-6.87,34.931-22.728l26.439-124.937
                    L437.45,226.797L431.009,203.591z M474.04,322.559l9.215-43.552c1.384-6.521,7.85-10.727,14.37-9.35l43.552,9.221
                    c6.527,1.384,10.733,7.843,9.356,14.37l-9.215,43.552c-1.384,6.521-7.849,10.733-14.37,9.35l-43.552-9.215
                    C476.863,335.546,472.656,329.08,474.04,322.559z M28.27,309.646l103.115-28.606l243.299-67.517l26.181-7.274
                    c0.478-0.129,0.955-0.19,1.421-0.19c2.1,0,4.611,1.378,5.345,4.017l3.074,11.07l9.631,34.704L37.148,362.186l-12.705-45.768
                    C23.647,313.546,25.399,310.442,28.27,309.646z M472.601,444.141c0.49,1.776-0.024,3.245-0.545,4.164
                    c-0.514,0.918-1.506,2.119-3.282,2.608L96.173,554.316c-0.471,0.129-0.955,0.196-1.421,0.196c-2.1,0-4.611-1.384-5.345-4.023
                    L51.519,413.955l383.188-106.342l23.371,84.208L472.601,444.141z"/>
        <path d="M156.379,453.484c-1.788-6.429-8.499-10.225-14.928-8.443l-43.515,12.08c-6.423,1.782-10.225,8.499-8.437,14.928
                    l12.074,43.509c1.788,6.429,8.499,10.225,14.928,8.437l43.515-12.074c6.429-1.782,10.225-8.499,8.443-14.928L156.379,453.484z"/>
    </symbol>
</svg>