<svg xmlns="http://www.w3.org/2000/svg" viewBox="0 0 512.085 512.085"><path d="M482.071 228.334h-18.735v-94.645c0-68.394-55.644-124.038-124.048-124.038H228.491a7.51 7.51 0 00-7.506 7.506 7.51 7.51 0 007.506 7.506h110.798c60.118 0 109.036 48.909 109.036 109.026v94.645h-21.947V134.65c0-34.157-20.186-65.422-51.421-79.663-3.773-1.721-8.227-.05-9.938 3.713a7.508 7.508 0 003.713 9.948c25.901 11.809 42.634 37.71 42.634 66.002v93.684H315.93a7.51 7.51 0 00-7.506 7.506 7.503 7.503 0 007.506 7.506h166.141c2.962 0 5.735.861 8.066 2.362a14.995 14.995 0 016.935 12.65v15.972c0 8.277-6.725 15.012-15.002 15.012H30.014c-8.277 0-15.002-6.735-15.002-15.012v-15.973c0-8.277 6.725-15.012 15.002-15.012h255.892a7.496 7.496 0 007.506-7.506 7.503 7.503 0 00-7.506-7.506H100.72V134.65c0-39.962 32.506-72.467 72.457-72.467 175.949.03 166.071-.08 169.304.09 4.143.19 7.666-2.992 7.866-7.126a7.494 7.494 0 00-7.126-7.866 87.403 87.403 0 00-4.313-.11H173.177c-48.228 0-87.469 39.241-87.469 87.479v93.684H63.76v-94.645c0-60.118 48.919-109.026 109.036-109.026h25.67a7.51 7.51 0 007.506-7.506 7.51 7.51 0 00-7.506-7.506h-25.67c-68.404 0-124.048 55.644-124.048 124.038v94.645H30.014C13.461 228.334 0 241.805 0 258.358v15.973c0 16.553 13.461 30.024 30.014 30.024h8.917c.5 3.913-4.464 53.602 28.252 106.574 9.057 14.652 20.907 28.623 28.453 35.748 66.012 65.562 143.303 54.403 150.269 55.614 39.892 0 75.543 3.188 122.117-20.556 59.865-30.362 102.273-91.674 104.994-163.327.028-.737.08-9.438.114-14.053h8.942c16.553 0 30.014-13.471 30.014-30.024v-15.973c-.001-16.553-13.462-30.024-30.015-30.024zm-36.378 76.02l-40.772 53.813c-2.202-2.902-5.094-6.715-8.937-11.789l31.835-42.023h17.874zm-36.7 0l-22.428 29.593-22.428-29.593h44.856zm-13.49 66.243l-8.937 11.789-8.937-11.789 8.937-11.799 8.937 11.799zm-50.19-66.243l31.835 42.013-8.937 11.799-37.49-49.479-3.002-4.333h17.594zm13.481 66.243l-37.49 49.479-37.49-49.479 37.49-49.479 37.49 49.479zm-46.907 61.909l-8.937 11.799-37.49-49.489 8.937-11.799 37.49 49.489zm-14.332-128.152c.891 0 4.383 0 16.223-.02l-39.381 53.833-8.937-11.799 31.835-42.013h.26zm-19.085 0l-22.428 29.593-22.428-29.593h44.856zm-13.49 66.243l-8.937 11.799-8.937-11.799 8.937-11.799 8.937 11.799zm-50.19-66.243l31.835 42.013-8.937 11.799-.01-.01c0-.01-.01-.02-.02-.03s-.01-.02-.02-.02c0-.01-.01-.01-.01-.02 0 0 0-.01-.01-.01-.01-.01-.01-.02-.02-.03l-.006-.006-.024-.024v-.01c-.01-.01-.01-.02-.02-.03l-.01-.01s0-.01-.01-.01c-.01-.02-.02-.03-.02-.03-1.061-1.381-7.576-9.948-40.762-53.572h18.044zm31.835 90.462l-37.49 49.489-8.937-11.799 37.49-49.489 8.937 11.799zm-18.354-24.219l-37.49 49.479-37.49-49.479 37.49-49.479 37.49 49.479zm-43.975-66.243l-2.932 4.333-37.49 49.479-8.937-11.799 31.835-42.013h17.524zm-36.349 0c-10.098 13.321-17.334 22.878-22.428 29.593l-22.418-29.593h44.846zm-13.491 66.243l-8.937 11.789-8.937-11.789 8.937-11.799 8.937 11.799zm-50.189-66.243l31.835 42.013c-.45.721-8.857 11.699-8.937 11.799l-40.772-53.813h17.874zm-30.314 8.437l43.795 57.806-20.806 27.462c-14.373-25.21-22.699-54.303-22.989-85.268zm40.502 110.588a176.472 176.472 0 01-8.957-11.759l21.667-28.603 8.937 11.799-21.647 28.563zm58.796 46.236a177.255 177.255 0 01-48.548-34.898l20.816-27.472 37.49 49.479-9.758 12.891zm14.171 6.135l5.004-6.595 8.417 11.109a170.468 170.468 0 01-13.421-4.514zm5.004-31.445l-37.49-49.489 8.937-11.789 37.49 49.479-8.937 11.799zm18.355 24.219l-8.937-11.799 8.937-11.789 8.937 11.799-8.937 11.789zm12.69 16.743l-3.273-4.323 8.927-11.789 13.431 17.724s.01.01.03.04v.01c.01.01.01.01.02.03h.009c.013.017.025.032.037.05l-.001-.002a2.972 2.972 0 01-.036-.048h.001c.01.01.02.03.04.05.05.06.07.1.08.11-6.525-.26-12.95-.891-19.265-1.852zm66.913 2.012h-28.683l-23.148-30.554 37.49-49.479 37.49 49.479-23.149 30.554zm38.27-2.062a170.755 170.755 0 01-19.305 1.902l13.611-17.964 8.927 11.789-3.233 4.273zm12.65-16.693l-8.937-11.789 8.937-11.799 8.937 11.789-8.937 11.799zm46.907-85.497l8.937 11.789-37.49 49.489-8.937-11.799 37.49-49.479zm-36.859 97.086l8.307-10.959 4.894 6.455a174.79 174.79 0 01-13.201 4.504zm27.342-10.688l-9.618-12.7 37.49-49.479 20.616 27.201c-14.021 14.232-30.414 26.111-48.488 34.978zm58.736-46.297l-21.447-28.312 8.937-11.799 21.487 28.362a179.197 179.197 0 01-8.977 11.749zm17.554-25.28c-14.161-18.705-18.595-24.549-20.646-27.262l43.729-57.698c-.194 30.032-8.294 59.185-23.083 84.96z"/><path d="M237.572 358.015l.02.026-.009-.012-.011-.014z"/></svg>