<svg height="512" viewBox="0 0 511.998 511.998" width="512" xmlns="http://www.w3.org/2000/svg"><path d="M502.727 190.218a7.5 7.5 0 00-7.5 7.5v161.71c0 26.45-9.287 43.54-23.66 43.54-4.678 0-7.149-3.171-12.076-10.958-5.091-8.044-12.062-19.062-26.964-19.062-11.654 0-15.168 13.991-16.49 19.258-2.208 8.793-3.639 20.572-5.154 33.042-3.678 30.28-8.715 71.749-27.405 71.749-12.31 0-17.632-14.789-24.934-39.146-8.171-27.257-18.374-61.172-53.77-59.081-7.396.431-14.387-2.817-18.267-8.497-5.602-8.193-4.657-16.498-2.878-22.022 2.811-8.727 9.439-15.774 14.312-17.649 27.019-.481 47.147-8.167 59.862-22.862 12.578-14.538 14.177-31.867 14.057-40.626 17.49-9.057 28.953-21.989 34.104-38.499 8.036-25.758-1.669-53.29-8.173-67.42 33.874-7.65 45.751-31.213 49.424-41.691 2.16-6.165 3.272-12.5 3.395-18.649l33.435 33.435c4.412 4.412 7.698 9.861 9.502 15.76a7.5 7.5 0 0014.344-4.386c-2.52-8.238-7.098-15.838-13.238-21.979L366.569 15.6C356.509 5.54 343.134 0 328.909 0c-14.227 0-27.602 5.54-37.661 15.6-10.059 10.059-15.599 23.434-15.599 37.66 0 .291.017.579.021.869l-2.779-2.779c-10.06-10.06-23.431-15.599-37.652-15.599-14.228 0-27.604 5.54-37.663 15.599-13.729 13.729-18.374 33.149-13.951 50.736a53.658 53.658 0 00-13.106-1.615c-14.24 0-27.617 5.541-37.663 15.599-20.764 20.765-20.764 54.551 0 75.316l2.777 2.777c-.291-.005-.58-.021-.872-.021-14.233 0-27.606 5.541-37.652 15.6-10.061 10.061-15.602 23.436-15.602 37.662s5.542 27.599 15.602 37.654l20.61 20.612c-11.465 5.689-23.461 12.31-35.212 19.464a7.5 7.5 0 007.801 12.813c12.959-7.89 26.208-15.109 38.625-21.063l66.336 66.342c-17.643 39.276-43.532 78.45-58.204 93.13-13.745 13.74-31.794 20.609-49.848 20.608-18.05-.001-36.105-6.87-49.845-20.606-27.478-27.488-27.478-72.212-.002-99.697 6.089-6.089 16.184-14.161 28.427-22.729 3.394-2.375 4.219-7.051 1.844-10.445s-7.052-4.219-10.445-1.844c-12.937 9.054-23.745 17.723-30.434 24.412-33.322 33.334-33.322 87.572.003 120.907 16.667 16.661 38.558 24.992 60.451 24.991 21.893 0 43.788-8.332 60.456-24.994 15.295-15.304 40.51-52.942 58.912-92.419l18.61 18.612c10.063 10.05 23.438 15.585 37.661 15.585 13.995 0 27.155-5.367 37.148-15.108 1.864.176 3.753.228 5.658.115 21.931-1.295 29.495 18.327 38.515 48.415 7.003 23.361 14.94 49.838 39.302 49.838 31.979 0 37.699-47.097 42.296-84.94 1.687-13.881 4.201-34.586 7.687-39.077 5.715.415 8.719 4.721 13.355 12.049 5.057 7.992 11.35 17.938 24.752 17.938 23.485 0 38.66-22.979 38.66-58.54v-161.71a7.5 7.5 0 00-7.501-7.499zM301.855 80.313c-7.227-7.226-11.206-16.834-11.206-27.053 0-10.22 3.979-19.828 11.206-27.054C309.081 18.98 318.689 15 328.909 15c10.219 0 19.827 3.98 27.053 11.206l72.143 72.143.018.02c7.679 7.683 9.709 22.559 4.936 36.174-6.208 17.711-22.127 29.609-43.948 33.024zm-93.672-18.357c7.227-7.226 16.835-11.206 27.057-11.206 10.214 0 19.819 3.979 27.045 11.206l118.132 118.133c2.816 5.01 19.735 36.857 11.217 64.092-3.851 12.312-12.62 22.136-26.065 29.275L208.183 116.069c-14.919-14.919-14.919-39.194 0-54.113zm-64.72 118.823c-14.916-14.916-14.916-39.187.003-54.106 7.216-7.224 16.824-11.203 27.054-11.203s19.838 3.979 27.057 11.206l159.236 159.237c.239 5.616-.238 20.425-10.463 32.142-9.733 11.152-25.911 17.032-48.085 17.525zm119.392 232.959c-10.22 0-19.83-3.977-27.057-11.195L107.714 274.448c-7.227-7.223-11.207-16.828-11.207-27.046 0-10.219 3.98-19.827 11.212-27.058 7.215-7.225 16.819-11.203 27.042-11.203 10.23 0 19.838 3.979 27.057 11.206l121.741 121.741c-6.22 5.264-11.458 13.028-14.208 21.566-3.968 12.321-2.272 24.782 4.772 35.084 2.465 3.608 5.621 6.653 9.232 9.05-6.07 3.868-13.122 5.95-20.5 5.95z"/></svg>