<svg xmlns="http://www.w3.org/2000/svg" width="231.22" height="88.75"><path data-name="петровские пироги" d="M.02 2.084v23.712a1.142 1.142 0 00.39.91 1.4 1.4 0 00.94.338h3.26a1.1 1.1 0 001.23-1.248V4.372a.964.964 0 01.94-1.2h7.41a1.033 1.033 0 011.14 1.2v21.424a1.181 1.181 0 00.35.91 1.2 1.2 0 00.88.338h3.31a1.144 1.144 0 00.87-.338 1.283 1.283 0 00.32-.91V2.084a1.383 1.383 0 00-.32-.936 1.105 1.105 0 00-.87-.364H1.35a1.342 1.342 0 00-.94.364 1.224 1.224 0 00-.39.936zm41.99 20.072a.85.85 0 00-.55.208 6.217 6.217 0 01-2.34 1.664 2.546 2.546 0 01-1.76 0q-3.75-1.508-6.07-7.384a1.113 1.113 0 010-.676 1.082 1.082 0 01.34-.52h.05a2.857 2.857 0 011.29-.416 2.458 2.458 0 011.28.26 9.489 9.489 0 011.58.884 3.608 3.608 0 001.38.624 1.829 1.829 0 001.44-.312 4.3 4.3 0 00.93-.78c.37-.346.66-.641.89-.884.2-.242.42-.52.65-.832a.723.723 0 00.17-.52 1.515 1.515 0 00-.17-.52l-.3-.312a.843.843 0 00-.42-.26.588.588 0 00-.42.052 2.6 2.6 0 01-.69.208 1.122 1.122 0 01-.57-.156q-.27-.156-.57-.312a.615.615 0 00-.24-.156 4.94 4.94 0 00-2.67-.78 5.983 5.983 0 00-2.62 1.092c-.46.278-.87.538-1.24.78a.6.6 0 01-.66.1.766.766 0 01-.42-.572q-.645-4.992 1.23-7.956a2.312 2.312 0 011.21-.936 2.408 2.408 0 011.56 0 8.365 8.365 0 013.46 2.652.661.661 0 00.49.286.7.7 0 00.54-.182 12.618 12.618 0 013.71-2.288.77.77 0 00.49-.65.706.706 0 00-.29-.7A19.5 19.5 0 0036.67.21a3.661 3.661 0 00-1.73 0 14.409 14.409 0 00-7.46 4.992 14.052 14.052 0 00.03 17.42 14.173 14.173 0 007.53 4.94 3.722 3.722 0 001.63.052 10.8 10.8 0 006.27-3.64.845.845 0 000-1.092l-.39-.468a.755.755 0 00-.54-.258zM69.1 1.226a.948.948 0 00-.81-.494H45.36a.832.832 0 00-.76.494 1.174 1.174 0 00-.03 1.066 21.508 21.508 0 011.02 2.418 26.455 26.455 0 01.76 2.574.6.6 0 00.47.572.523.523 0 00.57-.312l.79-1.248a5.534 5.534 0 012.2-2.184 6.1 6.1 0 012.94-.728.94.94 0 01.47.13.38.38 0 01.22.338v21.892a1.4 1.4 0 00.34.962 1.1 1.1 0 00.84.39h3.31a1.216 1.216 0 00.92-.39 1.33 1.33 0 00.37-.962V3.856a.448.448 0 01.54-.468 6.3 6.3 0 012.97.728A5.518 5.518 0 0165.52 6.3l.79 1.248a.583.583 0 00.59.312.6.6 0 00.45-.572 23.929 23.929 0 01.76-2.574 18.336 18.336 0 011.06-2.418 1.066 1.066 0 00-.07-1.07zm11.39-.91a11.2 11.2 0 00-3.81 1.82 11.792 11.792 0 00-2.86 3.068 14.368 14.368 0 00-1.8 4.056 17.373 17.373 0 00-.62 4.732 42.7 42.7 0 00.32 5.122q.315 2.73.62 5.928.285 3.2.42 6.916a61.865 61.865 0 01-.32 8.085.332.332 0 00.04.39 1.407 1.407 0 00.4.234 3.143 3.143 0 001.7-.052 4.434 4.434 0 001.61-.884 5.305 5.305 0 001.83-3.535c.06-1.006.09-1.89.07-2.652s-.05-1.5-.1-2.21-.1-1.43-.17-2.158-.12-1.543-.15-2.444a.408.408 0 01.15-.494.358.358 0 01.49.026 5.318 5.318 0 001.02.546 9.737 9.737 0 01.96.442 4.272 4.272 0 002.22.312 13.77 13.77 0 004-1.924 14.316 14.316 0 003.26-3.094 14.506 14.506 0 002.18-3.978 13.856 13.856 0 00-.03-9.308 14.826 14.826 0 00-2.22-4.056 13.811 13.811 0 00-3.28-3.068 13.667 13.667 0 00-4.01-1.82 5.924 5.924 0 00-1.92 0zm-3.63 7.332a9.434 9.434 0 011.16-2.808 6.326 6.326 0 01.74-.988.984.984 0 011.13-.052 8.772 8.772 0 013.68 2.938 15.094 15.094 0 012.65 5.33 10.379 10.379 0 01.62 3.25 13.393 13.393 0 01-.3 3.016 13.985 13.985 0 01-.87 2.652 14.272 14.272 0 01-1.13 2.106 5.047 5.047 0 01-1.76 1.846 2.085 2.085 0 01-1.6.286 4.97 4.97 0 01-1.66-1.248 8.447 8.447 0 01-1.06-1.56c-.26-.52-.51-1.022-.74-1.508a10.233 10.233 0 01-.62-1.742 17.418 17.418 0 01-.44-2.392 33.157 33.157 0 01-.22-3.458 18.823 18.823 0 01.42-5.668zm37.81 14.9a14.456 14.456 0 01-7.41 4.966 3.876 3.876 0 01-1.78 0 14.308 14.308 0 01-7.43-4.966 13.955 13.955 0 010-17.264 14.312 14.312 0 017.43-4.966 3.116 3.116 0 011.78 0 14.461 14.461 0 017.41 4.966 13.846 13.846 0 010 17.262zM103.29 3.802a2.238 2.238 0 00-1.21.936q-2.43 4.056-.55 10.92 2.28 6.657 6.37 8.32a2.15 2.15 0 001.54.052 2.474 2.474 0 001.23-.988c1.61-2.669 1.8-6.309.54-10.92q-2.265-6.656-6.37-8.32a2.378 2.378 0 00-1.55-.002zm29.31 8.892a.527.527 0 010-.884l2.13-1.092q3.3-1.767 3.83-4.056a4.521 4.521 0 00-.99-4.082 5.173 5.173 0 00-4.18-1.794h-11.11a1.138 1.138 0 00-.89.39 1.336 1.336 0 00-.35.91v23.71a1.335 1.335 0 00.35.91 1.138 1.138 0 00.89.39h12.05a6.606 6.606 0 004.42-1.326 5.4 5.4 0 001.91-3.172 6.483 6.483 0 00-.35-3.614 5.163 5.163 0 00-2.37-2.7zm-5.53-9.1a.855.855 0 01.64-.26h2.67a2.266 2.266 0 012.25 1.3 3.688 3.688 0 01.02 2.938 5.38 5.38 0 01-2.61 2.782l-2.33 1.248a.558.558 0 01-.59-.026.6.6 0 01-.3-.546V4.216a.9.9 0 01.25-.624zm.64 21.008a.852.852 0 01-.64-.26.962.962 0 01-.25-.676v-7.178a2.579 2.579 0 011.34-2.288l.49-.312a1.337 1.337 0 011.43.1l1.98 1.3a5.891 5.891 0 012.72 3.822 4.882 4.882 0 01-.89 3.822 4.17 4.17 0 01-3.56 1.664h-2.62zm33-2.7a.722.722 0 00-.54.26 5.854 5.854 0 01-2.35 1.638 2.711 2.711 0 01-1.7.026q-4.11-1.664-6.37-8.372-1.935-6.864.54-10.92a2.312 2.312 0 011.21-.936 2.408 2.408 0 011.56 0 8.341 8.341 0 013.45 2.652.66.66 0 00.47.286.683.683 0 00.52-.182 12.49 12.49 0 013.71-2.288.757.757 0 00.14-1.352 18.992 18.992 0 00-5.92-2.6 3.66 3.66 0 00-1.73 0 14.461 14.461 0 00-7.41 4.966 13.272 13.272 0 00-3.02 8.606 13.409 13.409 0 003.04 8.684 14.223 14.223 0 007.49 4.94 3.689 3.689 0 001.63.052 10.763 10.763 0 006.22-3.64.9.9 0 00.2-.546.7.7 0 00-.2-.494l-.44-.52a.617.617 0 00-.5-.266zm19.66 5.252h3.46a1.106 1.106 0 00.89-.416 1.37 1.37 0 00.35-.884 21.556 21.556 0 00-.94-5.59 13.111 13.111 0 00-2.08-4.056 10.31 10.31 0 00-2.99-2.626 12.318 12.318 0 00-3.63-1.4.449.449 0 01-.29-.312.556.556 0 01.05-.416 11.859 11.859 0 011.87-2.886 7.41 7.41 0 011.88-1.534 3.365 3.365 0 011.68-.442 3.691 3.691 0 011.38.286.807.807 0 00.7-.13.862.862 0 00.39-.65 22.572 22.572 0 011.33-3.9.971.971 0 00.03-.832.847.847 0 00-.57-.52 7.072 7.072 0 00-2.49-.26 4.378 4.378 0 00-2.42 1.2 16.308 16.308 0 00-2.77 3.406 71.082 71.082 0 00-3.53 6.266.622.622 0 01-.55.312.631.631 0 01-.59-.676V2.187a1.4 1.4 0 00-.34-.962 1.153 1.153 0 00-.89-.39h-3.36a1.124 1.124 0 00-.89.39 1.4 1.4 0 00-.35.962v23.66a1.307 1.307 0 00.35.936 1.161 1.161 0 00.89.364h3.36a1.191 1.191 0 00.89-.364 1.3 1.3 0 00.34-.936V15.136a.985.985 0 01.27-.7.706.706 0 01.72-.182 6.057 6.057 0 012.12.65 5.98 5.98 0 012.05 1.82 11.26 11.26 0 011.66 3.51 21.887 21.887 0 01.79 5.668 1.233 1.233 0 00.34.884 1.176 1.176 0 00.89.364zM192.82.79a1.253 1.253 0 011.24 1.248v9.458a.614.614 0 00.27.546.605.605 0 00.62.026l5.68-2.756a5.189 5.189 0 002.81-4.68v-2.6a1.253 1.253 0 011.24-1.248h3.36a1.178 1.178 0 01.89.364 1.235 1.235 0 01.34.884v23.816a1.326 1.326 0 01-.34.91 1.138 1.138 0 01-.89.39h-3.36a1.172 1.172 0 01-.87-.39 1.309 1.309 0 01-.37-.91V12.12a.633.633 0 00-.27-.52.5.5 0 00-.57-.052l-5.63 2.652a5.162 5.162 0 00-2.91 4.68v6.968a1.309 1.309 0 01-.37.91 1.172 1.172 0 01-.87.39h-3.36a1.136 1.136 0 01-.86-.39 1.266 1.266 0 01-.37-.91V2.032a1.253 1.253 0 011.23-1.248h3.36zm37.25 21.366a.805.805 0 00-.54.208 6.237 6.237 0 01-2.35 1.664 2.517 2.517 0 01-1.75 0q-3.765-1.508-6.08-7.384a1.113 1.113 0 010-.676 1.1 1.1 0 01.35-.52h.04a2.9 2.9 0 011.29-.416 2.42 2.42 0 011.28.26 9.108 9.108 0 011.58.884 3.583 3.583 0 001.39.624 1.806 1.806 0 001.43-.312 4.332 4.332 0 00.94-.78c.36-.346.66-.641.89-.884.2-.242.41-.52.64-.832a.723.723 0 00.17-.52 1.183 1.183 0 00-.17-.52l-.3-.312a.843.843 0 00-.42-.26.6.6 0 00-.42.052 2.6 2.6 0 01-.69.208 1.122 1.122 0 01-.57-.156c-.18-.1-.37-.208-.56-.312a.653.653 0 00-.25-.156 4.891 4.891 0 00-2.67-.78 5.983 5.983 0 00-2.62 1.092q-.69.417-1.23.78a.611.611 0 01-.67.1.816.816 0 01-.42-.572q-.645-4.992 1.24-7.956a2.275 2.275 0 011.21-.936 2.378 2.378 0 011.55 0 8.365 8.365 0 013.46 2.652.678.678 0 00.49.286.736.736 0 00.55-.182 12.568 12.568 0 013.7-2.288.8.8 0 00.5-.65.732.732 0 00-.3-.7A19.5 19.5 0 00224.73.21a3.619 3.619 0 00-1.72 0 14.33 14.33 0 00-7.46 4.992 14.034 14.034 0 00.02 17.42 14.248 14.248 0 007.53 4.94 3.727 3.727 0 001.63.052 10.794 10.794 0 006.28-3.64.845.845 0 000-1.092l-.4-.468a.722.722 0 00-.54-.258zM43.68 50.084v23.712a1.149 1.149 0 00.4.91 1.4 1.4 0 00.94.338h3.26a1.1 1.1 0 001.23-1.248V52.371a.964.964 0 01.94-1.2h7.41a1.033 1.033 0 011.14 1.2v21.424a1.166 1.166 0 001.23 1.248h3.31a1.143 1.143 0 00.87-.338 1.282 1.282 0 00.32-.91V50.083a1.383 1.383 0 00-.32-.936 1.106 1.106 0 00-.87-.364H45.02a1.343 1.343 0 00-.94.364 1.232 1.232 0 00-.4.936zm29.84-1.3a1.253 1.253 0 011.24 1.248v9.464a.614.614 0 00.27.546.6.6 0 00.62.026l5.68-2.756a5.189 5.189 0 002.81-4.68v-2.6a1.253 1.253 0 011.24-1.248h3.36a1.179 1.179 0 01.89.364 1.235 1.235 0 01.34.884v23.816a1.325 1.325 0 01-.34.91 1.138 1.138 0 01-.89.39h-3.36a1.172 1.172 0 01-.87-.39 1.309 1.309 0 01-.37-.91V60.119a.633.633 0 00-.27-.52.5.5 0 00-.57-.052l-5.63 2.652a5.162 5.162 0 00-2.91 4.68v6.968a1.309 1.309 0 01-.37.91 1.172 1.172 0 01-.87.39h-3.36a1.151 1.151 0 01-.86-.39 1.266 1.266 0 01-.37-.91V50.031a1.253 1.253 0 011.23-1.248h3.36zm29.64-.468a11.24 11.24 0 00-3.8 1.82 11.829 11.829 0 00-2.87 3.068 14.373 14.373 0 00-1.8 4.056 17.772 17.772 0 00-.62 4.732 44.874 44.874 0 00.32 5.122c.22 1.82.42 3.8.62 5.928s.34 4.438.42 6.916a60.168 60.168 0 01-.32 8.086.317.317 0 00.05.39 1.491 1.491 0 00.39.234 3.182 3.182 0 001.71-.052 4.476 4.476 0 001.6-.884 5.187 5.187 0 001.24-1.534 5 5 0 00.59-2c.07-1 .09-1.889.08-2.652s-.05-1.5-.1-2.21-.11-1.43-.18-2.158-.11-1.542-.14-2.444a.4.4 0 01.14-.494.371.371 0 01.5.026 5.252 5.252 0 001.01.546 9.807 9.807 0 01.96.442 4.309 4.309 0 002.23.312 13.891 13.891 0 004-1.924 14.517 14.517 0 005.43-7.072 13.268 13.268 0 00.79-4.576 13.787 13.787 0 00-.81-4.732 15.384 15.384 0 00-2.22-4.056 13.856 13.856 0 00-3.29-3.068 13.617 13.617 0 00-4-1.82 5.983 5.983 0 00-1.93 0zm-3.63 7.332a10 10 0 011.16-2.808 7.029 7.029 0 01.74-.988 1 1 0 011.14-.052 8.9 8.9 0 013.68 2.938 15.081 15.081 0 012.64 5.33 10.1 10.1 0 01.62 3.25 12.329 12.329 0 01-.3 3.016 13.967 13.967 0 01-.86 2.652 13.375 13.375 0 01-1.14 2.106 5.029 5.029 0 01-1.75 1.846 2.107 2.107 0 01-1.61.286 4.832 4.832 0 01-1.65-1.248 7.561 7.561 0 01-1.06-1.56c-.27-.52-.51-1.022-.74-1.508a9.435 9.435 0 01-.62-1.742 18.933 18.933 0 01-.45-2.392c-.11-.918-.19-2.071-.22-3.458a18.824 18.824 0 01.42-5.669zm37.82 14.9a14.456 14.456 0 01-7.41 4.966 3.851 3.851 0 01-1.78 0 14.333 14.333 0 01-7.44-4.966 13.955 13.955 0 010-17.264 14.339 14.339 0 017.44-4.966 3.117 3.117 0 011.78 0 14.462 14.462 0 017.41 4.966 13.882 13.882 0 010 17.261zm-11.39-18.746a2.314 2.314 0 00-1.21.936c-1.61 2.7-1.8 6.344-.54 10.92q2.265 6.657 6.37 8.32a2.124 2.124 0 001.53.052 2.494 2.494 0 001.24-.988q2.415-4 .54-10.92-2.28-6.655-6.37-8.32a2.409 2.409 0 00-1.56-.003zm17.76-1.768v23.764a1.3 1.3 0 00.34.936 1.175 1.175 0 00.89.364h3.46a1.113 1.113 0 00.84-.364 1.307 1.307 0 00.35-.936V52.111a1.02 1.02 0 01.22-.65.739.739 0 01.62-.286h3.85a5.762 5.762 0 013.01.858 6.225 6.225 0 012.28 2.366l.49.988a.556.556 0 00.59.26.642.642 0 00.55-.468 14.959 14.959 0 01.76-2.5c.35-.866.69-1.7 1.01-2.5a.944.944 0 00-.02-.962.889.889 0 00-.81-.442h-17.2a1.166 1.166 0 00-1.23 1.248zm26.97-1.248a1.253 1.253 0 011.24 1.248v9.464a.614.614 0 00.27.546.6.6 0 00.62.026l5.68-2.756a5.189 5.189 0 002.81-4.68v-2.6a1.253 1.253 0 011.24-1.248h3.36a1.194 1.194 0 01.89.364 1.235 1.235 0 01.34.884V73.85a1.325 1.325 0 01-.34.91 1.153 1.153 0 01-.89.39h-3.36a1.172 1.172 0 01-.87-.39 1.309 1.309 0 01-.37-.91V60.119a.633.633 0 00-.27-.52.5.5 0 00-.57-.052l-5.63 2.652a5.162 5.162 0 00-2.91 4.68v6.968a1.309 1.309 0 01-.37.91 1.172 1.172 0 01-.87.39h-3.36a1.136 1.136 0 01-.86-.39 1.266 1.266 0 01-.37-.91V50.031a1.253 1.253 0 011.23-1.248h3.36z" fill="#a92925" fill-rule="evenodd"/></svg>