<svg xmlns="http://www.w3.org/2000/svg" viewBox="0 0 394.705 394.705"><path d="M389.851 200.415c-6.627-6.627-20.963-12.182-37.567-18.613-12.017-4.656-24.439-9.469-31.986-14.196-12.597-7.886-23.429-17.36-33.91-26.52C264.571 122.014 243.963 104 212.127 104c-39.777 0-69.77 20.05-104.498 43.264-5.606 3.746-11.346 7.583-17.277 11.433-21.857 14.182-39.03 20.746-52.83 26.016-12.367 4.726-22.134 8.457-29.38 15.703-7.767 7.765-8.62 15.217-7.967 20.099 1.707 12.733 14.751 20.526 16.234 21.373a6.828 6.828 0 009.313-2.538 6.826 6.826 0 00-2.539-9.313c-1.821-1.041-8.76-6.011-9.474-11.334-.133-.99-.536-4.011 4.087-8.634 5.187-5.187 13.329-8.298 24.596-12.6 13.643-5.214 32.326-12.351 55.393-27.32 5.984-3.884 11.774-7.753 17.43-11.537 32.879-21.98 61.276-40.96 96.91-40.96 26.709 0 44.58 15.623 65.273 33.71 10.88 9.513 22.134 19.35 35.651 27.817 8.648 5.417 21.69 10.467 34.301 15.353 13.244 5.13 28.257 10.948 32.846 15.537 3.326 3.331-3.724 14.517-10.247 21.074a6.83 6.83 0 00.017 9.65 6.823 6.823 0 009.643-.003c.234-.234 5.763-5.794 9.987-12.834 9.072-15.115 4.052-23.744.255-27.541z"/><path d="M10.121 229.261l26.334 61.44h323.028l26.332-61.44H10.121zm340.362 47.787H45.456L30.83 242.914h334.28l-14.627 34.134z"/><path d="M197.969 236.088a6.828 6.828 0 00-6.827 6.827v40.96a6.828 6.828 0 0013.654 0v-40.96a6.828 6.828 0 00-6.827-6.827zm13.653-109.227a6.828 6.828 0 00-6.827 6.827v10.24a6.828 6.828 0 0013.654 0v-10.24a6.828 6.828 0 00-6.827-6.827zm-25.894 8.827a6.825 6.825 0 00-9.653 0l-10.24 10.24a6.825 6.825 0 004.826 11.653 6.796 6.796 0 004.826-2l10.24-10.24a6.824 6.824 0 00.001-9.653zm68.267 10.24l-10.24-10.24a6.825 6.825 0 00-9.653 0 6.825 6.825 0 000 9.653l10.24 10.24a6.807 6.807 0 004.826 2 6.796 6.796 0 004.826-2 6.824 6.824 0 00.001-9.653zM81.651 281.999l-13.653-47.787a6.821 6.821 0 00-8.439-4.687 6.828 6.828 0 00-4.687 8.44l13.653 47.787a6.833 6.833 0 006.56 4.953c.62 0 1.254-.087 1.879-.266a6.827 6.827 0 004.687-8.44zm254.727-52.473a6.824 6.824 0 00-8.44 4.687L314.285 282a6.823 6.823 0 004.687 8.439 6.862 6.862 0 001.881.266 6.829 6.829 0 006.559-4.953l13.653-47.787a6.825 6.825 0 00-4.687-8.439zm-40.96 0a6.824 6.824 0 00-8.439 4.687L273.326 282a6.823 6.823 0 004.687 8.439 6.862 6.862 0 001.881.266 6.829 6.829 0 006.559-4.953l13.653-47.787a6.827 6.827 0 00-4.688-8.439zm-172.807 52.473l-13.653-47.787a6.823 6.823 0 00-8.439-4.687 6.828 6.828 0 00-4.687 8.44l13.653 47.787a6.833 6.833 0 006.56 4.953c.62 0 1.254-.087 1.879-.266a6.827 6.827 0 004.687-8.44zm41.154.909l-6.827-47.787c-.532-3.731-3.966-6.308-7.723-5.791a6.825 6.825 0 00-5.791 7.723l6.827 47.787a6.825 6.825 0 1013.514-1.932zm82.956-53.577c-3.743-.546-7.192 2.055-7.723 5.791l-6.827 47.787a6.827 6.827 0 006.767 7.793c3.34 0 6.26-2.456 6.746-5.861l6.827-47.787a6.824 6.824 0 00-5.79-7.723z"/></svg>