<svg height="512" viewBox="0 0 512.005 512.005" width="512" xmlns="http://www.w3.org/2000/svg"><path d="M501.746 239.958c-10.212-10.194-26.379-16.316-41.121-18.862-37.645-63.998-117.321-105.094-204.62-105.094-87.198 0-166.837 41.031-204.521 104.927-13.749 2.253-26.518 7.618-37.513 15.859-7.46 5.594-12.294 13.757-13.613 22.987-1.318 9.229 1.037 18.42 6.631 25.878 9.712 12.948 26.569 17.367 41.054 11.442l28.664 72.581c3.374 8.545 10.396 26.327 29.3 26.327h299.998c18.904 0 25.926-17.781 29.3-26.327l28.623-72.48c12.774 5.178 27.68 2.406 37.825-7.738 6.611-6.61 10.253-15.399 10.253-24.748-.001-9.348-3.643-18.137-10.26-24.752zM256.005 136.002c75.053 0 143.695 32.523 180.189 84.106-18.981 1.678-29.929 8.365-38.214 13.43-6.634 4.056-10.346 6.172-15.711 6.172s-9.077-2.117-15.712-6.172c-9.544-5.836-22.616-13.828-47.443-13.828-24.828 0-37.9 7.992-47.445 13.828-6.634 4.056-10.346 6.172-15.711 6.172s-9.077-2.117-15.711-6.172c-9.545-5.835-22.617-13.828-47.444-13.828-24.828 0-37.9 7.992-47.445 13.828-6.634 4.056-10.345 6.172-15.71 6.172s-9.077-2.117-15.712-6.172c-8.271-5.057-19.198-11.73-38.124-13.421 36.494-51.583 105.16-84.115 180.193-84.115zM416.702 362.33c-4.516 11.435-7.343 13.672-10.698 13.672H106.006c-3.356 0-6.183-2.237-10.698-13.673L66.63 289.714c5.289.037 8.996 2.149 15.572 6.169 9.546 5.835 22.618 13.828 47.445 13.828 24.828 0 37.899-7.992 47.444-13.828 6.634-4.056 10.346-6.172 15.711-6.172s9.077 2.117 15.711 6.172c9.545 5.835 22.617 13.828 47.444 13.828 24.828 0 37.9-7.992 47.444-13.828 6.635-4.056 10.347-6.172 15.712-6.172s9.077 2.117 15.711 6.172c9.545 5.835 22.617 13.828 47.444 13.828s37.899-7.992 47.444-13.828c6.615-4.044 10.325-6.159 15.666-6.171zm70.909-87.015c-5.2 5.2-13.313 5.885-19.287 1.632a9.82 9.82 0 00-.632-.415c-5.468-3.3-12.149-6.821-22.268-6.821-11.244 0-18.818 4.63-26.144 9.109-8.758 5.354-17.813 10.891-37.012 10.891s-28.254-5.537-37.012-10.891c-7.325-4.479-14.899-9.109-26.144-9.109s-18.819 4.63-26.144 9.109c-8.758 5.354-17.814 10.891-37.013 10.891s-28.254-5.537-37.012-10.891c-7.325-4.479-14.899-9.109-26.144-9.109s-18.819 4.631-26.144 9.109c-8.758 5.354-17.813 10.891-37.012 10.891s-28.255-5.537-37.013-10.891c-7.325-4.479-14.899-9.109-26.144-9.109-10.306 0-16.88 3.515-23.81 7.762-6.471 3.952-15.12 2.276-19.694-3.821a14.8 14.8 0 01-2.83-11.048 14.797 14.797 0 015.811-9.812c11.416-8.558 25.43-13.081 40.523-13.081 19.198 0 28.255 5.537 37.013 10.891 7.324 4.479 14.898 9.109 26.144 9.109 11.244 0 18.818-4.63 26.143-9.109 8.758-5.354 17.814-10.891 37.013-10.891s28.254 5.537 37.012 10.891c7.325 4.479 14.899 9.109 26.144 9.109 11.244 0 18.818-4.63 26.144-9.108 8.758-5.355 17.813-10.892 37.013-10.892 19.197 0 28.254 5.537 37.012 10.891 7.324 4.478 14.898 9.109 26.144 9.109 11.244 0 18.818-4.63 26.144-9.109 8.758-5.354 17.813-10.891 37.012-10.891 13.647 0 33.161 5.387 42.187 14.396 2.833 2.833 4.394 6.599 4.394 10.604s-1.561 7.771-4.394 10.604z"/><path d="M256.042 198.143c5.522 0 10-4.477 10-10v-20c0-5.523-4.478-10-10-10s-10 4.477-10 10v20c0 5.523 4.477 10 10 10zm-65.47-2.929a9.972 9.972 0 007.071-2.929l14.143-14.142c3.905-3.905 3.905-10.237 0-14.142-3.904-3.905-10.234-3.905-14.143 0L183.5 178.143c-3.905 3.905-3.905 10.237 0 14.142a9.972 9.972 0 007.072 2.929zm123.868-2.928c1.953 1.953 4.512 2.929 7.071 2.929s5.118-.977 7.071-2.929c3.905-3.905 3.905-10.237 0-14.142l-14.143-14.142c-3.906-3.905-10.236-3.905-14.143 0-3.905 3.905-3.905 10.237 0 14.142z"/></svg>